<mxfile host="app.diagrams.net" modified="2023-02-10T15:16:18.402Z" agent="5.0 (Windows NT 10.0; Win64; x64) AppleWebKit/537.36 (KHTML, like Gecko) Chrome/109.0.0.0 Safari/537.36" etag="SijPYhkCf62kReP-giBQ" version="20.8.20" type="github">
  <diagram id="C5RBs43oDa-KdzZeNtuy" name="Page-1">
    <mxGraphModel dx="1050" dy="581" grid="1" gridSize="10" guides="1" tooltips="1" connect="1" arrows="1" fold="1" page="1" pageScale="1" pageWidth="827" pageHeight="1169" math="0" shadow="0">
      <root>
        <mxCell id="WIyWlLk6GJQsqaUBKTNV-0" />
        <mxCell id="WIyWlLk6GJQsqaUBKTNV-1" parent="WIyWlLk6GJQsqaUBKTNV-0" />
        <mxCell id="j67WnfkW41FYY-DcMpxh-2" value="" style="edgeStyle=orthogonalEdgeStyle;rounded=0;orthogonalLoop=1;jettySize=auto;html=1;" parent="WIyWlLk6GJQsqaUBKTNV-1" source="j67WnfkW41FYY-DcMpxh-0" edge="1">
          <mxGeometry relative="1" as="geometry">
            <mxPoint x="130" y="150" as="targetPoint" />
          </mxGeometry>
        </mxCell>
        <mxCell id="j67WnfkW41FYY-DcMpxh-0" value="Start" style="ellipse;whiteSpace=wrap;html=1;" parent="WIyWlLk6GJQsqaUBKTNV-1" vertex="1">
          <mxGeometry x="70" y="30" width="120" height="80" as="geometry" />
        </mxCell>
        <mxCell id="j67WnfkW41FYY-DcMpxh-4" value="" style="edgeStyle=orthogonalEdgeStyle;rounded=0;orthogonalLoop=1;jettySize=auto;html=1;" parent="WIyWlLk6GJQsqaUBKTNV-1" target="j67WnfkW41FYY-DcMpxh-3" edge="1">
          <mxGeometry relative="1" as="geometry">
            <mxPoint x="130" y="210" as="sourcePoint" />
          </mxGeometry>
        </mxCell>
        <mxCell id="j67WnfkW41FYY-DcMpxh-37" value="" style="edgeStyle=orthogonalEdgeStyle;rounded=0;orthogonalLoop=1;jettySize=auto;html=1;fontColor=#005C0F;" parent="WIyWlLk6GJQsqaUBKTNV-1" source="j67WnfkW41FYY-DcMpxh-3" target="j67WnfkW41FYY-DcMpxh-5" edge="1">
          <mxGeometry relative="1" as="geometry" />
        </mxCell>
        <mxCell id="j67WnfkW41FYY-DcMpxh-3" value="edit payment sources&lt;br&gt;(page)" style="whiteSpace=wrap;html=1;rounded=0;" parent="WIyWlLk6GJQsqaUBKTNV-1" vertex="1">
          <mxGeometry x="70" y="305" width="120" height="60" as="geometry" />
        </mxCell>
        <mxCell id="j67WnfkW41FYY-DcMpxh-5" value="Edit Payment Sources&lt;br&gt;(link)" style="whiteSpace=wrap;html=1;rounded=0;" parent="WIyWlLk6GJQsqaUBKTNV-1" vertex="1">
          <mxGeometry x="70" y="480" width="120" height="60" as="geometry" />
        </mxCell>
        <mxCell id="j67WnfkW41FYY-DcMpxh-11" value="/digitalexp-autopay-make-module-l9.min.js" style="rounded=1;whiteSpace=wrap;html=1;labelBackgroundColor=none;fillColor=#dae8fc;strokeColor=#6c8ebf;" parent="WIyWlLk6GJQsqaUBKTNV-1" vertex="1">
          <mxGeometry x="140" y="220" width="250" height="30" as="geometry" />
        </mxCell>
        <mxCell id="j67WnfkW41FYY-DcMpxh-12" value="AutopayMake.LayoutView.js" style="rounded=1;whiteSpace=wrap;html=1;labelBackgroundColor=none;fillColor=#dae8fc;strokeColor=#6c8ebf;" parent="WIyWlLk6GJQsqaUBKTNV-1" vertex="1">
          <mxGeometry x="250" y="320" width="180" height="30" as="geometry" />
        </mxCell>
        <mxCell id="j67WnfkW41FYY-DcMpxh-16" value="rp-server/commerce/v1/customer/847188474/paymeans?salesChannel=WR&amp;amp;filterExpierd=false" style="rounded=1;whiteSpace=wrap;html=1;labelBackgroundColor=none;fillColor=#dae8fc;strokeColor=#6c8ebf;" parent="WIyWlLk6GJQsqaUBKTNV-1" vertex="1">
          <mxGeometry x="210" y="495" width="560" height="30" as="geometry" />
        </mxCell>
        <mxCell id="j67WnfkW41FYY-DcMpxh-17" value="Api call for data" style="rounded=0;whiteSpace=wrap;html=1;labelBackgroundColor=none;fillColor=#ffe6cc;strokeColor=#d79b00;" parent="WIyWlLk6GJQsqaUBKTNV-1" vertex="1">
          <mxGeometry x="430" y="450" width="90" height="40" as="geometry" />
        </mxCell>
        <mxCell id="j67WnfkW41FYY-DcMpxh-18" value="on click of this link open new view" style="ellipse;shape=cloud;whiteSpace=wrap;html=1;rounded=0;labelBackgroundColor=none;fillColor=#d5e8d4;strokeColor=#82b366;" parent="WIyWlLk6GJQsqaUBKTNV-1" vertex="1">
          <mxGeometry x="70" y="550" width="120" height="80" as="geometry" />
        </mxCell>
        <mxCell id="j67WnfkW41FYY-DcMpxh-27" style="edgeStyle=orthogonalEdgeStyle;rounded=0;orthogonalLoop=1;jettySize=auto;html=1;fontColor=#050000;fillColor=#d5e8d4;strokeColor=#82b366;" parent="WIyWlLk6GJQsqaUBKTNV-1" source="j67WnfkW41FYY-DcMpxh-19" target="j67WnfkW41FYY-DcMpxh-26" edge="1">
          <mxGeometry relative="1" as="geometry">
            <Array as="points">
              <mxPoint x="130" y="990" />
            </Array>
          </mxGeometry>
        </mxCell>
        <mxCell id="j67WnfkW41FYY-DcMpxh-28" style="edgeStyle=orthogonalEdgeStyle;rounded=0;orthogonalLoop=1;jettySize=auto;html=1;entryX=0;entryY=0.5;entryDx=0;entryDy=0;fontColor=#050000;fillColor=#d5e8d4;strokeColor=#82b366;" parent="WIyWlLk6GJQsqaUBKTNV-1" source="j67WnfkW41FYY-DcMpxh-19" target="j67WnfkW41FYY-DcMpxh-23" edge="1">
          <mxGeometry relative="1" as="geometry" />
        </mxCell>
        <mxCell id="j67WnfkW41FYY-DcMpxh-29" style="edgeStyle=orthogonalEdgeStyle;rounded=0;orthogonalLoop=1;jettySize=auto;html=1;entryX=0;entryY=0.5;entryDx=0;entryDy=0;fontColor=#050000;fillColor=#d5e8d4;strokeColor=#82b366;" parent="WIyWlLk6GJQsqaUBKTNV-1" source="j67WnfkW41FYY-DcMpxh-19" target="j67WnfkW41FYY-DcMpxh-25" edge="1">
          <mxGeometry relative="1" as="geometry" />
        </mxCell>
        <mxCell id="j67WnfkW41FYY-DcMpxh-19" value="Edit Payment Sources&lt;br&gt;(page)" style="whiteSpace=wrap;html=1;rounded=0;fillColor=#d5e8d4;strokeColor=#82b366;" parent="WIyWlLk6GJQsqaUBKTNV-1" vertex="1">
          <mxGeometry x="70" y="650" width="120" height="60" as="geometry" />
        </mxCell>
        <mxCell id="j67WnfkW41FYY-DcMpxh-20" value="[&lt;br&gt;&amp;nbsp; &amp;nbsp; {&lt;br&gt;&amp;nbsp; &amp;nbsp; &amp;nbsp; &amp;nbsp; &quot;paymeansId&quot;: &quot;16204569&quot;,&lt;br&gt;&lt;b&gt;&lt;font color=&quot;#005c0f&quot;&gt;&amp;nbsp; &amp;nbsp; &amp;nbsp; &amp;nbsp; &quot;favoriteIndicator&quot;: false,&lt;br&gt;&lt;/font&gt;&lt;/b&gt;&amp;nbsp; &amp;nbsp; &amp;nbsp; &amp;nbsp; &quot;cardInfo&quot;: {&lt;br&gt;&amp;nbsp; &amp;nbsp; &amp;nbsp; &amp;nbsp; &amp;nbsp; &amp;nbsp; &quot;expiryMonth&quot;: 2,&lt;br&gt;&amp;nbsp; &amp;nbsp; &amp;nbsp; &amp;nbsp; &amp;nbsp; &amp;nbsp; &quot;expiryYear&quot;: 26,&lt;br&gt;&amp;nbsp; &amp;nbsp; &amp;nbsp; &amp;nbsp; &amp;nbsp; &amp;nbsp; &quot;cardHolderName&quot;: &quot;Test&quot;,&lt;br&gt;&amp;nbsp; &amp;nbsp; &amp;nbsp; &amp;nbsp; &amp;nbsp; &amp;nbsp; &quot;cardType&quot;: &quot;VS&quot;,&lt;br&gt;&amp;nbsp; &amp;nbsp; &amp;nbsp; &amp;nbsp; &amp;nbsp; &amp;nbsp; &quot;lastFourDigits&quot;: &quot;1111&quot;,&lt;br&gt;&amp;nbsp; &amp;nbsp; &amp;nbsp; &amp;nbsp; &amp;nbsp; &amp;nbsp; &quot;cyberSourceId&quot;: &quot;9504969000007151&quot;&lt;br&gt;&amp;nbsp; &amp;nbsp; &amp;nbsp; &amp;nbsp; }&lt;br&gt;&amp;nbsp; &amp;nbsp; },&lt;br&gt;&amp;nbsp; &amp;nbsp; {&lt;br&gt;&amp;nbsp; &amp;nbsp; &amp;nbsp; &amp;nbsp; &quot;paymeansId&quot;: &quot;15756887&quot;,&lt;br&gt;&amp;nbsp; &amp;nbsp; &amp;nbsp; &amp;nbsp; &quot;favoriteIndicator&quot;: false,&lt;br&gt;&amp;nbsp; &amp;nbsp; &amp;nbsp; &amp;nbsp; &quot;bankAccountInfo&quot;: {&lt;br&gt;&amp;nbsp; &amp;nbsp; &amp;nbsp; &amp;nbsp; &amp;nbsp; &amp;nbsp; &quot;bankAccountNumber&quot;: &quot;****1081&quot;,&lt;br&gt;&amp;nbsp; &amp;nbsp; &amp;nbsp; &amp;nbsp; &amp;nbsp; &amp;nbsp; &quot;bankAccountName&quot;: &quot;UMB Bank National Association&quot;,&lt;br&gt;&amp;nbsp; &amp;nbsp; &amp;nbsp; &amp;nbsp; &amp;nbsp; &amp;nbsp; &quot;accountOwnerName&quot;: &quot;Donnell J Scott &quot;,&lt;br&gt;&amp;nbsp; &amp;nbsp; &amp;nbsp; &amp;nbsp; &amp;nbsp; &amp;nbsp; &quot;routingNumber&quot;: &quot;101100634&quot;,&lt;br&gt;&amp;nbsp; &amp;nbsp; &amp;nbsp; &amp;nbsp; &amp;nbsp; &amp;nbsp; &quot;bankAccountType&quot;: &quot;Checking&quot;&lt;br&gt;&amp;nbsp; &amp;nbsp; &amp;nbsp; &amp;nbsp; }&lt;br&gt;&amp;nbsp; &amp;nbsp; }&lt;br&gt;]" style="text;whiteSpace=wrap;html=1;fillColor=#fff2cc;strokeColor=#d6b656;" parent="WIyWlLk6GJQsqaUBKTNV-1" vertex="1">
          <mxGeometry x="500" y="650" width="370" height="380" as="geometry" />
        </mxCell>
        <mxCell id="j67WnfkW41FYY-DcMpxh-22" value="digitalexp-common-components-l9\src\ui-components\AutopayList\AutopayList.js" style="rounded=1;whiteSpace=wrap;html=1;labelBackgroundColor=none;fillColor=#dae8fc;strokeColor=#6c8ebf;" parent="WIyWlLk6GJQsqaUBKTNV-1" vertex="1">
          <mxGeometry x="224" y="575" width="536" height="30" as="geometry" />
        </mxCell>
        <mxCell id="j67WnfkW41FYY-DcMpxh-31" value="" style="edgeStyle=orthogonalEdgeStyle;rounded=0;orthogonalLoop=1;jettySize=auto;html=1;fontColor=#050000;fillColor=#d5e8d4;strokeColor=#82b366;" parent="WIyWlLk6GJQsqaUBKTNV-1" source="j67WnfkW41FYY-DcMpxh-23" target="j67WnfkW41FYY-DcMpxh-30" edge="1">
          <mxGeometry relative="1" as="geometry" />
        </mxCell>
        <mxCell id="j67WnfkW41FYY-DcMpxh-23" value="Back Link" style="whiteSpace=wrap;html=1;rounded=0;fillColor=#d5e8d4;strokeColor=#82b366;" parent="WIyWlLk6GJQsqaUBKTNV-1" vertex="1">
          <mxGeometry x="150" y="750" width="120" height="60" as="geometry" />
        </mxCell>
        <mxCell id="j67WnfkW41FYY-DcMpxh-33" value="" style="edgeStyle=orthogonalEdgeStyle;rounded=0;orthogonalLoop=1;jettySize=auto;html=1;fontColor=#050000;fillColor=#d5e8d4;strokeColor=#82b366;" parent="WIyWlLk6GJQsqaUBKTNV-1" source="j67WnfkW41FYY-DcMpxh-25" target="j67WnfkW41FYY-DcMpxh-32" edge="1">
          <mxGeometry relative="1" as="geometry" />
        </mxCell>
        <mxCell id="j67WnfkW41FYY-DcMpxh-25" value="Caret icon" style="whiteSpace=wrap;html=1;rounded=0;fillColor=#d5e8d4;strokeColor=#82b366;" parent="WIyWlLk6GJQsqaUBKTNV-1" vertex="1">
          <mxGeometry x="150" y="860" width="120" height="60" as="geometry" />
        </mxCell>
        <mxCell id="j67WnfkW41FYY-DcMpxh-35" value="" style="edgeStyle=orthogonalEdgeStyle;rounded=0;orthogonalLoop=1;jettySize=auto;html=1;fontColor=#050000;fillColor=#d5e8d4;strokeColor=#82b366;" parent="WIyWlLk6GJQsqaUBKTNV-1" source="j67WnfkW41FYY-DcMpxh-26" target="j67WnfkW41FYY-DcMpxh-34" edge="1">
          <mxGeometry relative="1" as="geometry" />
        </mxCell>
        <mxCell id="j67WnfkW41FYY-DcMpxh-26" value="Done Button" style="whiteSpace=wrap;html=1;rounded=0;fillColor=#d5e8d4;strokeColor=#82b366;" parent="WIyWlLk6GJQsqaUBKTNV-1" vertex="1">
          <mxGeometry x="150" y="960" width="120" height="60" as="geometry" />
        </mxCell>
        <mxCell id="j67WnfkW41FYY-DcMpxh-30" value="navigate back to Make Payment screen" style="whiteSpace=wrap;html=1;rounded=0;fillColor=#d5e8d4;strokeColor=#82b366;" parent="WIyWlLk6GJQsqaUBKTNV-1" vertex="1">
          <mxGeometry x="350" y="750" width="120" height="60" as="geometry" />
        </mxCell>
        <mxCell id="j67WnfkW41FYY-DcMpxh-32" value="navigate to Payment Source" style="whiteSpace=wrap;html=1;rounded=0;fillColor=#d5e8d4;strokeColor=#82b366;" parent="WIyWlLk6GJQsqaUBKTNV-1" vertex="1">
          <mxGeometry x="350" y="860" width="120" height="60" as="geometry" />
        </mxCell>
        <mxCell id="j67WnfkW41FYY-DcMpxh-34" value="navigate back to Make Payment screen" style="whiteSpace=wrap;html=1;rounded=0;fillColor=#d5e8d4;strokeColor=#82b366;" parent="WIyWlLk6GJQsqaUBKTNV-1" vertex="1">
          <mxGeometry x="350" y="960" width="120" height="60" as="geometry" />
        </mxCell>
        <mxCell id="j67WnfkW41FYY-DcMpxh-36" value="USCC-22153&lt;br&gt;Sagar&lt;br&gt;Set Up Auto Pay&lt;br&gt;&lt;span style=&quot;font-size: 11.5pt; font-family: -apple-system;&quot;&gt;&lt;/span&gt;" style="ellipse;shape=cloud;whiteSpace=wrap;html=1;rounded=0;labelBackgroundColor=none;fillColor=#d5e8d4;strokeColor=#82b366;" parent="WIyWlLk6GJQsqaUBKTNV-1" vertex="1">
          <mxGeometry x="580" y="290" width="120" height="80" as="geometry" />
        </mxCell>
        <mxCell id="j67WnfkW41FYY-DcMpxh-38" value="&lt;span style=&quot;font-size: 13px; font-family: -apple-system;&quot;&gt;&lt;a href=&quot;https://deljira/browse/USCC-22136&quot;&gt;&lt;span style=&quot;color:black&quot;&gt;USCC-22136&lt;/span&gt;&lt;/a&gt;&lt;br&gt;&lt;/span&gt;Deepak&lt;br&gt;Make a Payment&lt;br&gt;&lt;span style=&quot;font-size: 11.5pt; font-family: -apple-system;&quot;&gt;&lt;/span&gt;" style="ellipse;shape=cloud;whiteSpace=wrap;html=1;rounded=0;labelBackgroundColor=none;fillColor=#d5e8d4;strokeColor=#82b366;" parent="WIyWlLk6GJQsqaUBKTNV-1" vertex="1">
          <mxGeometry x="140" y="380" width="120" height="80" as="geometry" />
        </mxCell>
        <mxCell id="j67WnfkW41FYY-DcMpxh-43" value="/editautopay" style="text;whiteSpace=wrap;html=1;fontSize=13;fontColor=#005C0F;" parent="WIyWlLk6GJQsqaUBKTNV-1" vertex="1">
          <mxGeometry x="650" y="245" width="100" height="40" as="geometry" />
        </mxCell>
        <mxCell id="j67WnfkW41FYY-DcMpxh-44" value="digitalexp-autopay-create-module-l9.min.js" style="rounded=1;whiteSpace=wrap;html=1;labelBackgroundColor=none;fillColor=#dae8fc;strokeColor=#6c8ebf;" parent="WIyWlLk6GJQsqaUBKTNV-1" vertex="1">
          <mxGeometry x="480" y="220" width="250" height="30" as="geometry" />
        </mxCell>
        <mxCell id="j67WnfkW41FYY-DcMpxh-47" value="&lt;font style=&quot;font-size: 13px;&quot;&gt;/autopaymake&lt;/font&gt;" style="text;whiteSpace=wrap;html=1;fontSize=23;fontColor=#005C0F;" parent="WIyWlLk6GJQsqaUBKTNV-1" vertex="1">
          <mxGeometry x="300" y="240" width="180" height="50" as="geometry" />
        </mxCell>
        <mxCell id="j67WnfkW41FYY-DcMpxh-50" value="Edit Auto Pay" style="text;whiteSpace=wrap;html=1;fontSize=13;fillColor=#dae8fc;strokeColor=#6c8ebf;" parent="WIyWlLk6GJQsqaUBKTNV-1" vertex="1">
          <mxGeometry x="640" y="190" width="90" height="30" as="geometry" />
        </mxCell>
        <mxCell id="j67WnfkW41FYY-DcMpxh-53" value="Make a Payment" style="rounded=1;whiteSpace=wrap;html=1;labelBackgroundColor=none;strokeColor=default;fontSize=13;fontColor=#005C0F;fillColor=default;" parent="WIyWlLk6GJQsqaUBKTNV-1" vertex="1">
          <mxGeometry x="70" y="150" width="120" height="60" as="geometry" />
        </mxCell>
        <mxCell id="sH9wbmZMEqAloiifo66G-0" value="" style="shape=image;verticalLabelPosition=bottom;labelBackgroundColor=default;verticalAlign=top;aspect=fixed;imageAspect=0;image=data:image/png,iVBORw0KGgoAAAANSUhEUgAAAhEAAAGACAYAAAATTDBpAAAAAXNSR0IArs4c6QAAAARnQU1BAACxjwv8YQUAAAAJcEhZcwAADsMAAA7DAcdvqGQAAJ6GSURBVHhe7f0LfFXHleeL/zw9PROcO40wKBIER8gSToZuSFDLdFuT+COIQQY7YLd4OO5uzMOSubrueDrXAaHYwU9JgG/H7nHLtnRhsKfbBoFiQwy2MDH6uN2iY8nSNaS5CUjIxDaSeLTF3Ov8c2em5/zruXft13nsc450jrS+fDY6tR+1a1fV3rVqrVVV10QYIAiCIAiCSJB/pf4SBEEQBEEkBAkRBEEQBEGEgoQIgiAIgiBCQUIEQRAEQRChICGCyHJ6UX/DbBSyrb5b7UoJl7Bvg4y3sLFX7SMIgiBMaHRGijj59GN4E8ux5aH5ao+i+2Vsb5qGdbuXIU/tCqYXe6cewnkVmtx8PzZV5quQRNynQQVW3BRnvCHg6a4YALb6PFOcyLQWYumVtZin9qWansbZqEQrBmrDpTE2XEhZDbSeRV2p2kUQBEEISBORILxh3P50unqm83H3lW3YcuV+lKxQu1zMe4gf34Z1zTlqTwguHMELU5/F2xdU2IeTHQMoaL4JkxtO4aTal3lcwtkzQNWt6RIgOPNxWzXQ99ElFSYIgiA0JESkiLzCJBr1jKMXpxsKMaeyBEUrBnA6pJlACjzp00IAn6C/Q/0kCIIgRp2EzRmNO/8Kv/zVWRXycv31M/HEth+qkGS47VnsGbgF6wrfxZ7qEbnTrYrnveO5XbiqguZxcX31FJdaXKr+0b4Nd0OaDErmdKGngZsBlqPo8CH0HAQK+HGthtYqeoXnGDc71FzGHn2OkQaHGcGBVNfn8TQeni3Oh3peYQbg8XbMtU0CrjT4mwuG8PaGF9F/u9ecoRF5ou7nNmc402qYE9x5bOAwnei8YHEP87gcZhqe7+9i6qlbcGWubXox81KWlypn8/4uLh2owoLNHagKbSoYHVMDN5k8V9yJ3Stz1R6CIAiCk7Am4r7192LSpEkq5KVqw73ql4uGQ7JhFer65Sg42IXX2obUQdZovgLcJY55j+dV3oICOHvEw23v4jxr5BfqxoOd3194v1DzX60+hCs127B0K3C+Q5keROP9GUpOqXucugkjFY9hr9nLZnHs4Y2nTxq0GYHHKRp+K62ygcwrmCLO4wwPsAZUmQGGz38mdwpYA8wFCn0tS8Nkli+ONCSJECBOM+FH3WNd82d4c+rL0iQxYxk26fsix84LtpnCCjdlTL69RAgn88oLrWexGUHPXC5I6Hvk4HyFugcjr/JBGW87uzadDPWhDxtxWxoFCM71xeU4fqQDZNAgCIJwkrAQMW3aVNy1/A4VcnLn8tvxletnqpAL3qu3erPzsZA39gODKpyPxQ+ZPer5mMMaa/u4DFsCARM6Th4esRo6SSHKdEOohAvTxCAaxuY1WDxD7WANapkjTg7rNVs9e3ca4qUXp1kjXrLVzwwwH3ebWocZ3FzAmuTzWphKFm6GYMLBk3Ze+glg0ZFxFN2s8rJ0ru/1Be0PWnkp7/EZhqP4WPiRu7IFA+fCaBHUiIw6YPu5WpSovelCpLMe2MLuueEAiRIEQRCaUD4RSxYvwte+OluFJNyMcWeAcBHI6UEMq59cBb596mPW5jYdzLvHcPK70IP+g4bQEJMhDJ9mAkH1i1HvkRQzpmHywcusIR3EyJzpmMcEGC0cTC6cLv5yhGOmlYYXhcklZfB7Cy2BeQ/b5BAX3afY+VOQp4UtTMfUuASdEVxJUIgIz3zUMeFDNuyN6FF70wU3u0iB5SyZNAiCIAxCO1a6zRqBZowAhMqfNbaix9z9MvZUw6FeF2YDE9Frlz3i4RNngeYlCTjs5SNvjrT76/itzeOPkBw8bTnl85F3MxOyDvfgJH9OBReU5JBHff/gURihmDEdOS4zhd4s348YcI0NMIA3XYLOVfYsWuDzIISXHEy1BI9RIr8YxdiFt1JoDvLj474OLFxWDhIfCIIgnIQWIkyzxj1rVgWbMfy4cASdDUABa2w50m/A6P0yocKrJcjH4ppCnG96Fq9VT0lACyHhtv2r1fuiDmuMB2EiCRz2OIAeJgyJxpQLPZCOnjkFMq1CcFoxzTI1DLftS60mQphgRtDz8JHgBp8jhI0R9J9waxe4KUM6STqEEO5DcfAsTgbk3clXunB1xWzMS1CIED38lE8SZaInonJpK4b2Y4M2TXQ3suNV2MeyQqYn/ZoNgiCI8UJoIYLDzRrcD4L/jQl3WtS927lnUcR6y7p3nFe5hvXIjd5v0zQs9ZsHgdvnD47g6ta5CWghFKVrsaV9ikvV73KsjANPWi2nRd4wM6zGVGo/TOY9JJ01dT5wR1OHxoU7f4pjqvevzS/WvBR8ZIS6lo9+sOKynRq5A+jSOUZeu45L5uPudi5U2eadF7gDqdAoFGKOW2shtEBOoeN8hR2/GL1h+ZLwkSXqmBiFovMq+rwU6UHO8QDswnM+vgzFs0i3QBAEkQzXjMaMldGGIyaGMawzYWc8IjVkUhnwqanL0F8TxTmTaxpW70piGCkN8SQIgggiKU3EaHPy6UM4v3U5CRCEIhezbwRajgXNIMqEjKZd7G8yw0B78VYzaS0IgiD8yAIhwlaPi/kPUuwISWQ3JbWtqGpe7fWtEL4OZahFPd4PNQxUL8C1Gi3VrWmdzIogCCJbGRVzBkEQBEEQ44+sMmcQBEEQBJE5kBBBEARBEEQoSIggCIIgCCIUJEQQBEEQBBEKEiIIgiAIgggFCREEMaboqbnTOf03kRRiuDAvIzk9OkEQNjTEc1SQszw6V9PkC3GtTXz67kznwhG8MLcLV1UQYkEwe9nwrIRPR16BtJQXnw2zEq0YqM28+U/4WiILNneo0Ea0jcKy65mMyI8jS/D+7lW0GBtBKEgTES+8cUxy/QdzYaulW/maEu41LbIc3tgyASLHsYBXlgsQaeUSzp4Bqm7NzAnUcle2YIAvud66Ue3xQSxmlt4eulgYbcN+lltjS+43l2BhRz8+VmGCIEiIGDPEYlyQS5uPF8RqrCtuwkKa3TFOPkG/7ugTBEFkIaNqzmjc+Vf45a/OqpCX66+fiSe2/VCFTPjU13JlSw3v1cs1NLip4F1MPbUGeFif41ahu65nDZ17MbCTTz/mWH7cit+jnreZ3Hw/NuklyV3nOY75LVqlzue9dr0vMA3q+hFHnObCZiU4yZ7vyu03YaSap6EQS9uBN/kqmo5nTSIfGOJ+A7dgXeG7chVRztbl2KKmIhfH2X7zGic++eBnKvDkudv0E60+MKKWBSfxfPAzP2l1f/jFvbg/xGrA53oRd18NBm5tFwuICapdZg+1uJjGkw6uJSirw3EVdJokfO4t4oPXbOG33xO3zcIdrsXKVDo9+2PgNKeYlKOxswVreJGKdPTjgXMVeItPUS6OG8/pk3avCUku5Farb1Ve72+ysO7lyh+CmMhwIWK0uHTpcmTTA38ZuXfjJt/t/K8/VmeaDEaOrn800rizR4Xd9ERevY4dZ9vzBwbFnqEDz0Qa1x+ODImQ9/oPd7KwdZzR9VLk1S71myGuv+6lyIcqLPj0cOT5656JHP1UhU3EsUeNOGSadHp02LxHomlwPhPHjFM9ozhf5Qc/15Hm5PNBho04PM+t4uTnuPZLvPnA7+nIa584ncSoDzHLInY++OWLpz4wLu6/LzKrsDjyVGBaYzDYGllf2BD5QAVNdNyzrOM9kafMe3U1sGP3RfZaj8XjMtPiOt+Dz3ERp096gvZzxH2NdPghri+OrN9/Ue1IDJEX61sjvler5zbL4YMGFm5Q5euTdsdxFuve9WZYHfe9X6w8JYiJx6iaM6ZNm4q7lt+hQk7uXH47vnL9TBUy6D7KeoysFxhj4S2zt5lXMAU4eBnDPHChB/2u6+fdcxMmHzyLk9q/oXSto+ecd/NsTMZnGI7T/2H4xFlcdawuOh8Lm3Nw9XCPTIPifIVcSEwsJgbWgzd7vzHSIMJmmrtP4TzrHc8xrpncvMTqKRfUsLhnTEeOCqcsH3ivXccxowRFK4CR87ZBfN5D2udDP29ifh8nX+ly5aWLGPUhZlnEzIdenG7IQcmTTs2EH9pnIHEthBqRUQdsj9qrNTUHM1FUDvR9JD0Deo7xnn297I1z8lfhgWrviqbBK5yOIqW1Ip/SuZS6qYW5vphl1Jm++HwohjrQ3sHy2dDwlKyrx8KOo3jH4+cxH3XsOW47xkdqNKJH7SWIicyo+0QsWbwIX/vqbBWScDPGnQHChbSzT4v5Qc8pMNTVrDHcolXPFy7jKrgTo92Ac+c/p3mCq9mjHY/O8MAI0HDIvp5tlrrfgKvcLYdDTyMYIw0zlqFs6wj6T8gv28mOAYfQEJNRyAcTKUzcj5IV7J5Px9uQDWH4NBOGCqersJdY9SFmWcTKhwuD8JZcqpGN0UA9sCVaY1RehOvVT77s+ZrduiGWDpnHN5epoYdyq2yWZ0r4PewVTvm24cBYuyami3IUGf0PIdzFO4Lik34cxy5UGvlYGGCm0cLfW7eysiOTBkEIRl2I4Ny3/l5MmjRJhVgvYsO96pcXh1YhDDOmsd4063laowX0pn0muH38EM5z274+dor1TMXF8ZFXyPr75vV6c9nZg4kvDfPKC1WPmveWC1HmsPPHYBTywUs+5t3O8ub0YJzll4+8OcDVgUEV9hKrPsQsi5j5MIrkF6OYNWBvJexcm4vZN0rfAzF6wtwcQ0WVsMK3TiaxMKGD5qJwMbMIC4XGx8hDsSmfC5OhPvSxc29LWPNEEOOXMREiTLPGPWtW+ZsxNKVzxSiG+HuzLoTKPdr1g7hy0Oz9ssb0YZ8euDAN2JoAE6H2Z73fvaE/0HGmoXQJ6/104bUN72IkES0EJ1X5kBC9OF49gsm3lyhhajqmmuYP7gDJnT8NuKDENQmBeRmjPsQsi1j5II4b5SwcP51p1Iihh6xnOhYNc8mtG3F8c138QyuFwGLiNI8Ip0HDSTNuRLwdaH8vipaDOzeyfAqrCcmdVQT4mhfiQAgJ/TirruVl5tDY5JejonwXKhtDfl8IYoIzppNNvX7ojUAzhhPp1W9O1uQeueDw+PfAe9lOb36HR76roShoXw5U8BEfrt6p6zzTD8M7osA8Hkca40yDHAHBGhGf0Sf9t/P7DRr34vc140guH+zRIFrDYt4332dEgyuPOI57FGLpqWnonHsZZebIB1c6vCMjotUHRtSy4MTIB8f1AWlkpH10RqyJjdSoBxMrLT6jJ4JGTUhYb7yzCM9Zow9cIxYsjJERGlc6UjU6w0SMqLAaf/fojKOocKfJwHFtdSveL26SI1+CRmdw/EZo0OgMgvBwzVgKEUTieBtyInuRjVd/TVghhBhVSIggCA9jYs4gQsJ6yK9xLUQcIweIbED6NmTECAoiJpfeO4rjDmdXgiBIE5ENGOr94ImciOxEmjT4JEnhzSJEWrHMNT6mHIKY4JAQQRAEQRBEKMicQRAEQRBEKEiIIAiCIAgiFCREEARBEAQRChIiCIIgCIIIBQkRBEEQBEGEgoQIgiAIgiBCQUM8041rCmaa54EgCIIYL5AmIt3MWIZNYpXI5ShQu7zwtSAeS2IBrzgY7ETVl1/Da8ELZBIEQRBEQpAQQRAEQRBEKMa3OUOYEvjqi3Nx2lr10bUipMvc4Fl10mfFR9sk4VzFUiDiO4si9wqgvit5elejtNi6HFse0qsMctT0yH6rC0aDayBKz+OICpos+5tFaLmTr8LxT/jrL5/B9d1lwKPv4IE3+NEv4Lnuu3CXWBmcHz8J/PS7+J5eeajnbXz5O8ChTxfjD9WuD555Fct3qgCmOY4RBEEQ448JoIkYwJuq8d5yZRuWbmXhp9WCR0qAyFHHuMkhp/pFvNA2JI8zTj7NBIg5rEEXx+WWOp+G+bhb3ZebOrhwYt3HIUAkwfQytHz6XXzaXYBlQjBgv3mYbVKA0PwWD5S+gyNLF4ljvX8DPPBoJy6qo7EQAsT/XYBeFXfv3/y/WP7lt/GBOk4QBEGMPyaEOcN0ZswrzAFOD2KY/R4+cRZXWY/fFgrmY2FzDq4e7hHHLRpOgfXDx5j5qDt3FgOJaCESxNZMAF/6yv8CvPE5PhahWPwT/mEnE1AeLcOX1J4v3XkjtuAy/qFH7SAIgiDGHRNAiMjBVMOskFf5ILbslktpDw+MMAHhELZPfcza9lSzfQbzHlLaC33OhiNOAWMcMfcrhmaiZDE+jdccMXgVp4Qm41V8+ct6O4nt6jBBEAQxPpnQjpVCK8F9D7QJQW9KyNBwQUIeux8l6MIebQ4hJNMnY67LVKI3y4eCIAiCGHdMbCHi5tmY3HAogaGV+cibo34KZPjqgB432Yu9hpNm/EzH1BXA+Y5owgl3rJyNwg37cUntSQjR0P8WR34eRo8yDdffAZz6tbqWO2t+57L8Lfh9/Icf/DYhHwqCIAgi+5kAozP8RkoYuEZncOwRGt6RGVhxE9aZmgrH9TkoOXULrsx9F1PVPYfbnvWYSDieUSDudKRqdIaJGFFhN/7O0Rmu0RduHNdOw6HuL+KF0s+xKXB0BodGaBAEQYxnaMZKgiAIgiBCMaHNGQRBEARBhIeECIIgCIIgQkFCBEEQBEEQoSAhgiAIgiCIUJAQQRAEQRBEKEiIIAiCIAgiFCREEARBEAQRChIiCIIgCIIIBQkRxISkp3E2Cvk04mJrhP9io5ewb4M8Z8OBUJONEwRBjGtIiMgS+PTZ5mqjfHuhbUgdJUJR3YoBvrz6uVr4zfZ96UAdalGP99k5u1emawH2LKa70RDE7K0+cC0aKZSlViBTgp5YU8b87UKntTFofRpbYPQ7L1jodF1nbkYc8np5nfk7HcQnII8hqiyC60l4nM+eijwIqrNR6toEg4QIhWikM32Zb75uh15p9NRNrBF8kQSJNPJxXwcWLisPt07JRKC0VgphnfVYiHI0dnKB7CzqStXx0eTGYruczN8M0bAcK0JjudrhZmg/NtxQhvZlnUqoZFutvW7NpQNVqDwjhUl+rK16FyqtxiMXa3ara6ytU9xrYfFMcYZFeRGuVz8dv1OISGvzRrRZafEXkDMXudBgWAGjpFY+9/s7WAHwdYayMg84yeXD6NFLQkTWMmMZ7mrOwdXDPZkt+GQtl3D2jPpJZDC5mH2j+un4rWC93ueKmXBQGyRBMCFjTx2wozNA29SLls0dqKqxF70rWceEpo46tAR94Lt3obZjIx4w4ru+2L6/+TvVcMEX1RWZ3Wgq4XNMhM2UoYTHsIshjheG+kZXiGjc+VdYd9//Grg98thT6kw3fDVNpyrfWr67+2UWfhknVZBz8ml2ztOmOjL4em0mECttHuzCHuucZ/H2BXkOx21OsDUAMu69bUfwgjjG0iLSxH47NBuuNLi0HiJ+nmZ9Ld8cz+BleMC1OihfCVRf67qHTL8zn/gHci87T+QFvy87/22ed2zfC229VnodS6Wb6XMf40RJg7wfz1d5X3mOM585ovyMOPy0LbzHlS6VaCzEvRt7rTSIza3WFL1bdcx1XF7nVrEaPQ+u7mXn71Oq2Q0Hei2VueN5XeYET15ESYO8XxX2Dcn7ynN4WB1WuNXDCZsiHGkoY42r2u9ApcGdh3Eiep9Kc2D+FrAGK7opqhdvNZej4psB53S3owUbcZvR4HGh4zj72/eRX2ovYV/TLk9DnruyxWpwzN+jSsg6aZe523Tjqi8ifh6HWaeMOF33d9ZXfc1qlt9Ay2r7PKdpyZWGBOuM77vrMl3FqrOOdyLo/u68duet69210xBvPph5zDdn/Po5HfdxPydD50NS31G+iudocenS5cimB/4ycu/GTb7b+V9/rM40GYwcXf9opHFnjwq76Hop0njdS5EPVZDz4U7n+e6wH0MHnok0rj8cGVJhE3HMcY+eyKvXPRp5/sAg+63SJ47L/SKeTw9Hnr/umcjRT/n53mcQaTLuJ++h4+HIuF7tEgFv+kT89nFxj51m+s002mH7fFecIh/l+Tot/FxH3olz9DMxQqbBjMM3H8znDODi/vsiswqLI08Zz5MIHzQUR2Y1RKsTPZGnCu+L7NVJN9D3tq/n5xZH1u+/qMIXI3sbWtn/GvdxGTbTLuJcr67pahDx8/PN53SkWZxjpG+wNbLeEWd8aTDjEPHrNDAcaYqGuLdPXvmlab2ZBo1KSzz3Co28t6fMRRobIh+oPJeb8Sx8v5UuOw8D609QXqQVXZbezc7rxOukrGMsb0TAJ/8C6iC/r47HP5987mUR7Zg3De46qwmqu553111H466zwffwxuGGPaOZJ77nx84jM03yuXRZGc9p7fOPT58XnFZ/7PiLI6OqiZg2bSruWn6HCjm5c/nt+Mr1Lhsip/soeg4WYulDRu8iDA2nXL3weBnCycMjmNy8BPPUHmA+FrpMCebxgpplyJsxHTkqjAs96Hc9w7x7bsLkg2dx0tELZ+dcWavimY6pK4CR84aob2pK5p5F0altuNvqIeVj8UPsvirE0zhnK3B1YNARPt+hpVH1XLeXGNcUoqwyX/5ccRMWsrjzCq2nwMmOAfaca7B4htoxYxnKHHHGSoOkoP1BK4555YXsuS47tDLw5IsX0ZtLi0pU93Tacdu5FqxR2eGB21utHu98VO0ox/G+T1Q4F2tqzZ7mfNxWDeO4DLcc0/l2Ce8ccftfGOpwdq8q9pymGrzn2C4s3FFvpy9/FR5wxBkrDZKqVvsZS27dCHT042MZlHQcxTteRVBcXHrvKI5Xt8ZRRvNRx23XY6Ya3oXKYxWiPkl7OlBb5tdzbEJRp+1k6/F5YAgtRXVNcL1JCyr/2NbGyth2GDYdghOtk7qObZQalaEOtHeUo3GdqeXZiMZytv89Z1+8qtV+L0WdPdOXkLYgEJGGjWgzNE3StJRgHTXf3fxyVLAkaq1S/HU2GFkHosXBysvUlrnSEBOlHTPNZbkra1DF6vFbDo0C943R/iAzUeRzj7DfUX0d94cadZ+IJYsX4Wtfna1CkuuZ8HBngHAxfP4z1qBNMxqmxJn30DYs3TqAN3UD7DIlRGcQVw4COQXOr0JewRRv4xfEhcu4CuP+QgjoYvtcOJ6TNci7t2GTbtQ5pmPlFbsh1rhNLm82qAMKIbhoYUoJNpbQEJMhDJ9mAkH1i1HvESsNscirfBDrmtmLOFfH4TbBpBvtKFeBt3zU+1ExPpYOdSnbKtkzmYiPX3O7bKjUx9H8KERH+msc31wW9R6x0hAL/qGQDaqOw9WwxkDY57MCZ8Pk+SB31GFBUxHet4TKAH+Zof14rtnV0GYQCdVJuMw8n/TjOIow2/G5kD4oTsG0HEWGbJVS041IAxP4jGcoLJOmpVSRfJ2VdcNPwDRxmgmDzHz+XPqon2Wz2zHXR0hwnCO/a+kYZTYmjpX3rb8XkyZNUiEmuW64V/3yklBjHQUuSMjG934mmbEefQx/AxsfjQAjIeFmxjRMFloGnQa9eQWB0HS/jD2sJ1Fyyo5/6VZ1TDOjBEUrBnCafRyHT5wFHNqVWOQjbw7XuNxvpF9tWsMSTxrigAsS9vVM+EpI6EsV/KX09rKCEB8fPSqA9VoXbIY1WoFvoodoInofsqHivR/oHl9cyI/3wh3GaAK96cYwnjTEgdXjENeboxLGCfnFKEY/znqERdUYllYwgYJ9owzHStaaoZ/1yt1+FKIHWr4Ei+KVy0eTBOuk6O2aGpWZRVjoyaf4GsyUIdJgjjzRWxSN4ajjJ1g54cKccwSNHM0TL7mzirwaQ1EngeJZqRcSYjEmQoRp1rhnzSp/M4amdC4KeC8+qNEXDfRnGFbqb94Tjt77lY2hGyms+KnR8zHv9hzWAz9q94gvHMFr1SPSbKF2RUU13oHPkAKEUIMpyNNCCWvQvfmQj8U1hTjf9CxL/5QEtBASbnq4Wr3P4wipiS8NiWGaU0xS4hCUKkQPlDU0t8oGXPQUzF4b+4B7tQCsZ1CzES1NVdiyuSgBLYSEmx6Ob64L1JTEl4bESHRUgTCPWD1bbiZKj2NlcnA1fgdq99jv5qUDTWixhAGl5l9ta2F6GlcbxzW85+4WNhJEO+OlIR8SqpPHeoUpQ9dngRAw3PlU5xmFkjyyR22aVSyUkFPp4yCYKuKvs8HIOFYHfptEh8PQEsh8VAGLKPkgBNtdeM5wcpZ1Upo9EyEV39ExESI43KzB/SD43+jMx91XlqOg4ZBDTW6NChB2+RFL/b1n4BasazYbHu/IjDdP34R1bh+L0rWs12vHY44a4D1jhzlkbhdy2k1/hFhw08T9KDntfIbEzCrRyatcgxIuqOi4m6ZhqSMfFFwoOziCq1vnJqCFULA82tI+xcgjuemyiDsNUXCPzNjDhJ2lu+MU1kYTruIWqki2lR1FBevhabti7sp61rMw1K5NRWjj49bd8I9BRweOhxmSx4fJtRYZpga56Y9B3GmIgntkxgIm7LSZqmnWEIljQqXMGhiVFuuDxNIotBfiejkPQxhtSFJYXvKqMWAfd5Fmo6EuqWU9wTNqP9sWHFmC943n5CM+7OeYLeeMcKnow37EHSjbOK9bgcNHQ5JQnWR5xJ/R+SxcHd4qjln5xOtDAnMw2OYU58gD54gfdp96blax72OPKuBpcJaV2Iyy1HV2wWZW2NY7moAZLmadtUdFBN5DvJtMGDNHVhjHS2pZPhrfjwV9NT7vRbR8mI+6znrAMGf61cnR4hruaal+ExMCPrzyEJCQEDT+4B+bSrQ6hwO64OfwOQbcdkT+MXQ3NOHgH6TVgOGIRkxsRN0SZodMUtETRDBjpokgxoaTTx/C+a3LJ7QAES9cfX/8SEfaVOyi95qkJzgxnpATWyFT/SoIwgcSIiYEtknH15QzUbFUhf7qTqEChlQ7pm69B3uyHKGCjKIJISYOUtUvhcoJPwsikVWQOYMgCIIgiFCQJoIgCIIgiFCQEEEQBEEQRChIiCAIgiAIIhQkRBAEQRAEEQoSIgiCIAiCCAUJESnDHrqXuuGABEEQRHZgtwH27JLjn/EvRHS/7JhG2ZouO8WI+c9Rj/fPpWeltKxHT5Hs2oLnbJcvZGoFMvWSi2lyzd8udFoDPwTGx8LnPOd00eYcFK7rzM2IQ14vrzN/p4PgtGYIatrqtAjmCdfJ2Ij5HnzqVLrLMXuwp40WW9yNrfO6zOyo8Wm5+YJacnrwZOpRNpFVQsTrh95g22EVioMLR/BCxWf2qpLthThfYa+JkUr4oioLl5XTJDFB8Pnk+Yp1nfVYiHJrNcExma1Rr7bJMX8zxMf+WFHwqnqiUZNz6lurCBoTRvFGREwipY45V77UHxlzkyv4eVZCNJfx9Sz7mxpEWh2rCca/DkKmIMorbK8vk+pkkiSVD6MGF6LVhFq6zsU92dp81IlrElvxcmyQi7Y5luUex2SdJoILEo07f4zLl6+oPcGcfKULV7feYi+3XboEJStG0PNKql82uSQukenIZXol5m8F65nytTIGaoO/Uny5Z+zwrqchkdMWmys5lqxjDVS0BZW6d3lWQjRXy0x05cxEEKsJhln8azTJX4XdrPHIdu0eX8QrG4W01CKXq3asDkpkPVlpzvjlr87gR48/haPH3lF7/OjF6QagoNyosN1H0XOQ/T096Fw9U6k106EiE+pN1kOQ09oqdZxb3WmtNOg9Lq9zq0Glak+oy3ja2fn7lFp6w4FeS2XuUKe5VLceVVuUNMj7VWHfkKlS5GF1WOFUjYfIT0ca0rNstPiYq96P+VvAeqbRGyu+3HM5Kr4ZcE53O1qwEbcZPVkudBxnf/17Jaxn1rTL05Dnrmyxpj42f48qIeukXeZu042rvoj4eRxmnTLjNPd765Kua2I5a3OlQ1e6nHXSneYYqHfrkvnueOqd8znFyo4Gjvc+8P5eM5fj/YxSFvHlQ7JloUjjd1Lg+kYlrFlx55PnGVz5EPIbQrjg015nC68d/Gnk3o2bHNuzzz0f+fzz36gzTHoir173TOTopzL04c5HI43rD0eGul6KNF73UuRDuVvS1RCZVVgcWb//otqRKD2Rpwrvi+wdVEGDi/vvE3HPauhRe/i55r0uRvY2tLL/Ne7jMvxUlwoyRJzr1TVG2vW9+LkfNBj3FOcY6Rtsjax3xBlfGsw4RPw6DQxHmqIh7u2TV35pWu9XJiot8dwrNPLedpkpRBobIh+oPJeb8Sx8v5UuOw8dZWESlBdpRZeld7PzOvE6KesYyxsR8Mm/gDrI76vj8c+noHogCcxbhm8dtdJoEFQOupx9ylTifc7A98CRPyYBdc0iVllIgvMhhWWh8iOoLALR+ejZzDxnz2XeT6XJUccEQfXBp0468OaDu36kkri/h+OArHes7On9EI889qQK+cGXvn4MnYX3Y8vuZcjju1ZMk381yjaauMpUS7btuO1clKV7y82Fluajakc5jvd9osK5WFNr9jSlPc0+LsMtx7RUfgnvHHH7XxjqcHavKtYTNtXgPcd2YeGOejt9+avwgCPOWGmQVLXaz1hy60agox8fy6Ck4yjecWkn4uXSe0dxPK4VLZVtdMwWKdqFymMVlk33/R1AbZmrxyN6VE0o6rTrlMfngSG0FNU1o7zks7Ytc38NFjTs03b9T7RO6jq2UWpUhjrQ3lGOxnWmlmcjGsvZ/vecfb8qYxl0UWfP9KWodyi1Ro319nPkrqxBFSu/t4JMS75sRJtV11z5IJ6THY/bru+DMmcFxxHfuxlIKssi7HdS+55wh0MW5PeRYfObyeqlmQf55ahgSUjUr8Cskw58ykqaGsN/s6IhNIj1wJYb0qi5yRCyXogo+cbX8cS2h1XIzQh65r6Lqae2YVOlrK3D5z8Tf1ODdpSrwFs+6v2oGC+oU+WpVJMGorI3t8uGSr0Mpg09OtJf4/jmsqj3iJWGWPCXRjaoOg4fdWgUhH0+K3B+iDwNU0cdFjQV4X3rAxngLzO0H8/xRs78uGcQCdVJ1WBbZp5P+nEcRZjtEI6kD4qz8StHkSFbpdR0M9SHPnQY9ZFvq9GiDqcE8ZzJcemj/piOs0m9m5lQFnHiND0FmTOD4MKxHBWh43A03iIfWAfAip9tZdLUmA5EmdUB28MIXVlG1goRkyZNwj1rVuF7D2zCtddOUntN5mPOVvbHdKxkDA+MYPLtJU5NRNLMRJGPZB+EaDD1qADWa12wGZZnON9ED9FESOWyoeI9dugeX1zID8bCHcZoAr3pxjCeNMSB+PBY15ujEsYJ+cUoRj/OeoRF9QEurZA9LcOxUjqTef0ohBaifAkWOT7uGUKCdVL4gpgalZlFWOjJJylM+Wlk0oIoK3vEhbll0uiL3FlFXo2eSbLvZiaURRzwRtc5UijMKAxby8ZH3IB1nCzfEpEPZvx6i6JBToKJNFovK4WIr311Np7Y9kMsWbxI7fFnXnkh0HDInhui+2W82ZCDoptdtUaon0dJ7SR6oKyhUR7Koidi9hRYWrw9jVysqdmIlqYqbNlclIAWQsJND8c31wVqSuJLQ2IkOqpAmEesni03E6XHsTI5uCqZ9W732CrTSwea0GIJA0rNv9rWwvQ0st6vR1jgPXe3sJEg2oksDfmQUJ081itMGQ6PeyFguPOpzjMKJRWIembVGxNVVnVprCdCaLS1ULwhdDtWxkTFURngRBjvuxmYD6ksizR+J0XHytDIyDSqQBiEEGmghN6gfLbRzqUuTap638Szi3yQmmepJUpM6zreyDoh4s7lt6P2B9/HtGlT1Z4olK5Vc0OoyabEnBEPOjQTowJXcYuKyVVoR1HBehW6N5S7sp5J3IaarakIbTt8GmD+senowPEwQ/K4TbK1yKXatT3A405DFNwjMxYwYce2JTPUB0iqEG01s9VTYGkU2gtxvZyHIYw2JCks724lwGjVqNFQl9SyHtIZW2W64MgSvG88Jx/xYT/HbDlnhEstLAUL6bsSGvFRZH+jDR8NSUJ1kuURf0bns3Azn1O1LOpDIkMcdX1RZWGZ41yNgCetxgddlMWNxrvnOh6zTsaE9XxbmSC1Wl4n6gIL2xijAVbvYmGdTtP06VXDm2mItyyC8yEFZTEKlNSyNBrfyQV9Nc73P1Z9sN5dva1G345OQ+vE88H57orNI4TLjgAvq+d8hKXiWakVgscD13DvSvWbSALeiPI5Btz2L9E7cTU04eAS8mrAcH4iJjay58tV3elRyRLEhIQLLEzoMx1NEyWoPRiPZL1jZabA1YnHj3SkTXUqeq9xjV4gJgZyYitkql8FQWQll+TcLa75XhJDmisnitaChIgUIdSJkOq41NkMbXWoUIsHDgMjJhLSDqumD05aw0UQhECYTMrUGkhhzD36ez2xOnxkziAIgiAIIhSkiSAIgiAIIhQkRBAEQRAEEQoSIgiCIAiCCAUJEQRBEARBhIKECIIgCIIgQkFCRMqwh2OOyvTZBEEQRAZhzFAac3rt8cOEECKG254V016/0BaweEQKEHO9i/HF43/VtlBY09Y6t+AphuULmVqBTL3kYqpb87cLndbAD4HxsfA5zzkFuHdefTnPg3GO7/XyOvN3OoiV1jHHXLMg1SRcJ2MjytanTqW7HLMHvTaF2uJubJ3XZWZHjU+tzRf1ktOMJ1OPsomsEiJeP/QG2w6rUDwM4e0Nj+E1zEaB2pMuJtKqbaHg63fwVfM667HQWF1xTCZk0SuocszfDPGxP1aEwBUERaMm1/awVgI0JgHjjYiYGEwdc69mKqaq5tOg62vVB8fzUTSXh46xVHRYRFodKydm1noK8SDKK2yvL5PqZJIklQ+jBhe+1SRpus7FPYGeXqEzzOqeo41cf6Pvo0wUdFJP1mkiuCDRuPPHuHz5itoTzHDbPlyp2YZNldPVnnQhl9YlMh25LLrE/K1gPVM+3/1AbfBXii/hjR1Bc+LLqajN1TlL1rEGylgky7EMvIAvI69+KswVUBNdDTURRFrCLOg2muSvwm7WeGS7do8vBpaNQlpq4cvi2ysYE+ODrDRn/PJXZ/Cjx5/C0WPvqD3+5FU+iLvj6VUotWY6VGRCvcl6COKvVse51Z3uFehcPVevGlSq9oS6jKednb9PqaU3HOi1VO0OdZpLdetRtUVJg7wfX3nQVCmaKxFKnKrxEPnpSEN6lgIXH3PV+zF/C1jPNHpjxefEL0fFNwPO6W5Hi2vOfS50HGd/da9ECBV8RUXVa/Rbljl3ZYs1nbX5e1QJWSftMneZfNz1RcTP4zDrlBmnud9bl3RdE8tiO1bAdKbLWSfdaY6Bercume+Op945n9O9FLjjvQ+8vzuvXO9nlLKILx+SLQtFGr+TAtc3KmHNijufPM/gyoeQ3xDCBZ/2Olt47eBPI/du3OTYnn3u+cjnn/9GnRFET+TV6x6NPH9gUIVddDVEZhUWR9bvv6h2JEpP5KnC+yJ7faK/uP8+Efeshh61h59r3utiZG9DK/tf4z4uw091qSBDxLleXWOkXd+Ln/tBg3FPcY6RvsHWyHpHnPGlwYxDxK/TwHCkKRri3j555Zem9X5lotISz71CI+9tl5lCpLEh8oHKc7kZz8L3W+my89BRFgIVf9qfww9dlt7NzuvE66SsYyxvRMAn/wLqIL+vjsebT5ygeiDxv0biW0etNBoE1Uldzj5lKvE+Z+B74MgfE5+8chCrLCTB+ZDCslD5EVQWgeh89GxmnrPnMu/n+R5oguqDT5104M0Hd/1IJXF/D8cBWe9Y2dP7IR557EkVComyjSauMtWSbTtuOxdlOeZyc/Gs+ajaUY7jfZ+ocC7W1Jo9TWlPs4/LcMsxLZVfwjtH3P4XRk+W3auK9YRNNXjPsV1YuKPeTl/+KjzgiDNWGiRVrfYzlty6Eejox8cyKOk4indC+q5eeu8ojse1aI2yjY7ZwlO7UHmswrLpvr8DqC1z9XhEj6oJRZ12nVpYPFP8lT3sMtTeyO3CnWrRNq9WJ31o2zL312BBwz5t1/9E66SuYxulun6oA+0d5WhcZ2p5NqKxnO1/z9n3M5dbFnX2TF+KeodSa9RYbz9H7soaVLHye8uthYvKRrRZdc2VD+I52fG47fo+dO8SmqjgOOJ7NwNJZVmE/U5q3xPu/8OC/D4ybH4zWb008yC/HBUsCYn6FZh10oFPWUlTY/hvVjSEBrEe2HJDGjU3GULWCxEl3/g6ntj2sAqNNtobtwJvJdoQGC+oU+WpVJMGUgXeLhsq9TKY6u/oSH+N45vLot4jVhpiwV8a2aDqOHzUoVEQ9vmswPkh8jRMHUwoaCrC+9YH0ukvI5Z0t4RKXn+4o1gHavckqLpNMwnVSdVgW2aeT/pxHEWY7RCqpQ+Ks/ErR5GWrRgpNd0M9aEPLF+t+sg3lvfqcEoQz5kclz7qj+k4m9S7mQllESdO01OQOTMILhxLJ2Udh6PxFvnAOgBW/Gwrk6bGdCDKrA7YHkboyjKyVoiYNGkS7lmzCt97YBOuvXaS2jtWcOc4r2QfhMO5jvVaF2yG5RnON9FDNBFSuWyoeI8duscXF/KDsXCHMZpAb7oxjCcNcSA+PNb1zlEJ44L8YhSjH2c9wqL6AJdWyJ6W4Vgpncl0A6sECodjpY+D51iTYJ0UviDVNXavcmYRFnryST67rZFJM6Ks7BEX5pZJoy9yZxV5NXomyb6bmVAWccAbXedIoTCjMGwtGx9xA9ZxsnxLRD6Y8estigY5CSbSaL2sFCK+9tXZeGLbD7Fk8SK1J0mE+nmU1E5D+/Ec60loD2XREzF7Ciwt3p4G67HWbERLUxW2bC5KQAsh4aaH45vrAjUl8aUhMRIdVSDMI1bPlpuJ0uNYmRxclezUGlw60ISW8iVYJPJOqflX21oYqXnQx3OxiH1Y7OdkqPqQ8AddO5GlIR8SqpPHeoUpw+FxLwQMdz55HUhTgahnZn5aqLKqS2M9EUKjrYXiDaHbsTImKo7KACfCeN/NwHxIZVmk8TspOlaGRkamUQXCIIRIAyX0BuWzjXYudWlS1fsmnl3kg9Q8Sy1RYlrX8UbWCRF3Lr8dtT/4PqZNm6r2RKH7ZTHJ1Paph3CeBa9WvyjDT8eqSCmGq7hFxeQqtKOoYL0K3RvKXVnPJG5DzdZUhLYdPg0w/9h0dOB4mCF53CbZWuRS7doe4HGnIQrukRkLmLBj25IZ6gMkVYi2mtnqKbA0Cu2FuF7OwxBGG5IUlne3EmC0atRoqEtqWQ/pjK0yFXM+GM/JR3zYzzFbzhlhHOfaGvM4z4/gIaNREB9F9tcYPpoqEqqTLI/4M3I/HBtupnGqlkV9SGSIo64vqiwsc5yrEfCk1figi7K40Xj3XMdj1smYsJ5vKxOkVsvrRF1gYRtjNMDqXSys02maPr1qeDMN8ZZFcD6koCxGgZJalkbjO7mgr8b5/seqD9a7q7fV6GPvla11UqZD490Vm0cIlx0BXlbP+QhLxbMSfE8nANdw70r1m0gC3ojyOQbcjYHonbgamnBwCXk1YDg/ERMb2fPlqu70qGQJYkLCBRYm9JmOpokS1B6MR7LesTJT4OrE40c60qY6FWrxuEYvEBMDObEVLFMJQRDJcwn7mrjWyDnfS2JwR+OJo7UYt5qIf/mfEfz2v/0P8Xd0+By/OLgLxz4CChdvxIo5X5R7Tx9Cy9kiVK34fcg9kviy/Tf4JxUnZn2bxTEH18oDxATmN6d/ipa3WaX4w1V48JskQRBESrjwHp7d35vEt9b4Xqt385prrsHv/Ktr8IV/86/F3/HIuBQi/utv/huufv7fVIggCIIgxpbfu/Z3MfmL/1aFxg/jzpxBAgRBEASRafzX3/x30T6NN8aVEMFNFyRAEARBEJkIb59Gz8Q+OowrIYL7QBAEQRBEpjLe2qlxp4kgCIIgiEzlf/zL/1S/xgc0xJMgCIIgiFCMKyFibAeaXMYbfzkft/zRfGx547LaRxAEQUwM7Dbglv90Uu0b/4x7TUR/0/+BV76mt/3gM9Gng39+43HswDa8/vNebL9jmtpLWHz4Y/lyubamD9VxD/KFTK1Apl7yv3wd/+z47UKnNfBDYHwsfM/Tx7+HNy6qXSauvHDnwS/+E9//Y/zC9TsdyPj1lr77hObi69jC0pYWwTzhOhmbf37je751Kt3lmD2cRJOZ33E3ts7rMrOjNg13/LgX7/78Jdz9t/cmVY+yifEtRHy4Hz9HBe755f8utj/63q/x8//4M3ymDqeSCwN/j5u//U1cp8KEi6//JXu52Av20224Gd/C5p/yl60XNV9Xx0eTG26wy8n8zRAf+3cL+QKA/ohGbTH+/ttvy+fh21/MUwcZ4vjjwLfXqh0u+PHqAev5321ei73VPsJGWSFmqJ+O3ymEN3g1f7sWTfo5fv6X+AN1LFsQ5RW215dJdTJJksqHUYML1/di75+9pOob28x3JyrzUCOueTv43cwY5uGWPwPOfzwxNNLjW4j4+ircU2N/Fov+5Bv44lvn0B+wmmV4LuOjc+onkcFMw6wb1E/HbwXrmf6XQiYc/MU31Q4vv9j3GPDI2wHaJvaRbBjAn//8r3GHXo7QBb/+xJ/dhzu+pHZ8/c/ZR/HvsWOf3QDMKPyW+uX8nWq44Is/+3ZmCw5fuhPbWeOR7dq9P/gL3gBmn5CWWi7g153A3bfEKzgQ2UDWCBGNO/8K6+77XwO3Rx57Sp0ZAqXWTIeKTKg3WQ9B/NXqOLe6U6ls/Y7L69xqUKnaE+oynnZ2/htKLb3ljZOWqt2hTouhQo+WBnk/3ls2VYre3rNTNR4iPx1pWMwXt/RBpcFHZRwP4mOuej/mbwHrmUZvrE7i3b/9Fr61IOgcrs6M1lDw610f0Q//i3zOc+es57nujr/Guz++U2hIzN+jSsg6aZe5y+Tjri8ifh6HWafMOM393rqk61oNy0/87b3Wee50OeukO80xUO/WP5vvjqfeOZ/zzieYYGbgeO8D7+/OK9f7GaUs4suHZMtCkcbvpMD1jUpYs+LOJ88zuPIh5DeEcJI1QsR96+/FpEmTVMhL1YZ71a9g+n/yf+Hz225AUcqXG+ASdpTGhb3cdw7cp1R4L+Huzsew3fzY7gO2aPWe6/h1d9yHu/Ey3jU+Kv/8xv+JvWXbcLdWu7Lz/571oF9/5Fs48cS9+PW6XjT9GbD3XfUS8pfTVKH/dBvOV5sfquhpkLDe8nf+T3xFxdH0Zyzc4GxYas5JnxAZR4K9R/4B+M5jKGjW12eg2vLiOZxHIWYNmh87H1NEVL6Fr0yXv0QDsKcQrzevZWU4wGrRaGA3FO6GxyEAJFgn8eHPsBdr8eeizPnHmgmBNxhq6+ZCVn/cefUyav6IvbeqzJv+jIWthiO6+lr27GU9h6keN3r7PH/NOvn6IwPsfkENeQDsue/kZSTi8Hl3Xc/J30ETIQTyY7yMffHJK7bZJpXoZRE7H1JRFkliCQf3sjrCvkvs2+N9d1i9fPfbdhq5iSkhvwJ2veP7wTdToPfmQ9MNrGzTJEhwDeKJn703IYSUrBEipk2biruW36FCTu5cfju+cv1MFQqA+0f8NZC3/tuYonZZKNto4ipTXjH5y/Az3MJV2FpF7YY1+K9bPd55uJs39gO6yWC9178we5rSnmYfl2FLIGD37PyZ2/9Cf7wZSrgw1eC/ePdl3PzIj+z0felO/LkjzlhpkNzdbD/jH9zi0/B1voPOhBpUm39+/x2cYB/B2PZo1biMRe9cwD6uxsfu9UfAPsgJNkyqIRemE/0cafJ78KIbZ2/DY9f/ROukrmN/Lj/aF9/D3zOhevMaU8sjzTZ//74pmPI6ZTeYos4aGpnkkFqjzVvt5/AVfmKyFk1WXXPlg3hOdjxuu74PQhMVLY743s1AUlkWYb+T2veEC0AsyO8jw+Y3k9VLMw++9E18iwmPifoVmHXSgU9Z/cEaJqgk8c2KhhAetwLbHcL5+CSrfCKWLF6Er311tgpJrmfCw50BwoUFEyBeWfNrfPHpP8e3YzZSicDV1/xlYI1Koj1S4wV1qjxVD9FAVPa//ZlsqNTLYAkNMZH+GieeWBz1HrHSEAv+0sgGVceRWMMq7PNZgfNDlHjDZGt09Mf4nz8eEH8ziYTqpGqwLU3c4ABOcI2NQ6iWPijOxs/WynBSaroRWiOe1/Yz6J5wyhDPmRyi7GMIkEm9m5lQFnHiND0tDjBnBsGFYyak+GrWGCIfuLbFuMd3Hku6/IIQZdYgNUiJd06zi6xzrHSbNWKaMYZ+hoNKgFgRqCpIlhn4io9kH4RoMPWogA9/jDufgG1qYJvoIZoIqVw2VLzHDt3jiwv5wbj5EWM0gd50YxhPGuLAUt2K69kLO95sjl+6AQUYwEceYdH5AQ5G9iJhOlYyMm5kT4J1UpgyzGeaXoibPfkkhdmbC0dH3yLLyh5xYW6ZNPriuusLo5uykn03M6Es4oA3us6RQmHMmbaWjZtDwDpOljlE5IMZv96iaJCTYCKN1ss6IcI0a9yzZlUMM8Yv8LPy/wuff68iugChbHajona6+Dr+C+tJaOc62Qs1egosLd6exjTcsW4t9u75HrY/UZiAFkLCTQ8nnng8UFMSXxoSI9FRBcI8YvVslf0yDY6VycGFAOdICumfsghlcX6I5HMatl6R19GcNQPQTmRpyIeE6uS7J4Upw+EsKgQMdz49LtT2idbdWIh6ZtUbE1VWht9Oyvn6tx1aKN4Quh0rY6LiCPI/iPfdDMyHVJYFu3e6vpOiY2VoZGQaVSAMQog0UEJvbD8P7TPk0qSq9008u8gHqXmWWqJEzZnji6wTIjhLFi8SfhD8bzT6m9oxzH/8dbsx4RTbmka5yLlzlqiYbPvOO/gW61Xo3tB1d/yISdyGmm1PIZpczlkC/rHp/HucCDMkj9skhTOVuofadEMWdxqi4FRFci91FoepDlUfIKlCtNXMVmPK0ii0F+J6OQ9DGG1IUlje3UqA0apRo6H+g79gPaRztsr0zp8twuvGc1r5UP0yC/k/p5wbQp/HHV5D9IbER5H9ZXVrr447RSRUJ1kecedFy8lXwM18TtWyqA+JDHHU9UWVhWWOczUCnrQaH3TudCic56xjzuMx62RMWM/XKEtRFxwOlNpnim2iPuh0mqZPrxreTEO8ZRGcDykoi1HgD/6CpdH4TnJHdMf7H6s+WO+u3u7F+UfeNrROPB+c767YPEK40haysvovPsJSwfXj2zQRhmsiYztXdEq5+vn/J9ZsHwt448Ed5dz2L9E7cTU04eASsvSeziR1LDF2yJ4vV3WnRyVLEBMSLrAwoc90NE2UoPaA83vX/i4mf/HfqlD2k5WaiEyEqxPTOaTnF/9JzvRGAgQhOYm9XHWegCmFIIhYXMYbe7jWaC1uCf2tlfPBBGktrrnmGvVrfDCuhIixLByhToRUx6XOZmirQ8V498BhYMREQtph1fTBo+xBTxDjFmEyWazWQApj7tHf6+gdvnGk/BeMK3PG57/97/jn/+f/UyGCIAiCyCyu+3f/Fl/8wu+qUPYzrjQRX/g3/1r9IgiCIIjMY7y1U+NKiPidf3UNJn/x36gQQRAEQWQOvH3i7dR4Ytw5Vv7etf9GeL8SBEEQRKbABQjePo03xpVPhMm//M8Ifvvf/gf+x7/8T7WHIAiCGK9k4qgH3rz+69/5V8KEMd40EJpxK0QQBEEQBJFeaJ4IYhTpRf0Ns1HItvputYsgCILIWkiIyCS6X8b2qS/DmthXhB/zbHvDNMAXjuAFI44X2obUgdGjp3E1WqpbMXDuLOpK1c5R5RL2bWBCzIb97Fdq6WnkwlEjelTYupdjX5rpbhyV+106UCUEQWtr7FVHso001QdRDn6CshKisyq/bME/qKzHT32wEc+k68XQfmy4oQr7HJ9MWXc2HIiz5og47DyK3YlKMP6Y6O+R8znEcyZZXhNGiHj90BtsO6xCWULpWmy5sg1bTt2EychBySn2m4XvTrgB7sXeuV1A8/0yPrZtqsxXx0aLSzh7Bqi6db4Kj0d24S3r4/AJ+jvUz1Ti+0EbPfhHZ8GRJXifCYJcGBw414qq5tUp/NiNA0pr0VYNtDQ5hZNLB5rQUl6P92uz5x3ggj9ag8ua6kOc5K/Cbp0/atdYsLAcaH8vtWUzoTQRXJBo3PljXL58Re2ZIFwYxAgTQopuHm3BwSRNjWpC5GLNbvYi717FfqUSJSBVb0TLMSXVd7ejb0c9+2D04+wYNfjp4OM+Vog3Fhv5NxNF7MOUnaSrPgAltayx6KjDFqsx7UXL5g5U1aT+XumkpNbUGs5H1Y5yHD/SYQlH46s+TACWLUHx5l0p1VZOOHPGL391Bj96/CkcPfaO2hONIby9IYopwWUi2L7hiFw1VHHyaWk2GG571jrHbUbg51jXV/BlfxOAmzv4PU2zhysNsXE/47N4+4I6ZKBVlunyZZDmAL3FMgu41NBcfcx/KzWyNw5X/D7qa0utZ8ZhqfmkStfduxLXWHGVo2hdBarO9Ilwz7F+VHyzWByxcamGfZ6pvls/r9ys/Nbq0LI6HEcHasvsczy9PvMZfJ7VSofvseiUrKvHQtbT1Hlz6UAdajs24oGVqW0as78+qAZXfbCFKa+cCZUOLaKzrP3S4cwH1/sn6gR/LrNeOZ9ToJ4hHdqB0aoPbnOA5zkdZc02q6w4PH+49s7Mb3/zhL5+ARP4EsNVlmG0hY5nLGP5qPZbRK8v0eusphy3VZsaUxfufDbuIePfb6WhvlvWOz4EZULw2sGfRu7duMmxPfvc85HPP/+NOsPNYOTo+kcjjTt7VNgNO77zcGRIhSKRnsir1z0aef7AoApHIh/uZNezfY3r1XmfHo48f90zkaOfisPyuD7G6XqJnf9S5EMVtHBdZyHON+NwpmHowDPyuGfT9/B5RhGn914X998XmVVYHHmqS+1IlMHWyPrChsgHKmjyQUNxZNb61shFFZb3Ms+9GNm7np3TINPpPj/S1SDSZu9znm8i4javVejns+/bE3nKeF7vdeZxfr/7IntZtn/QwP+yY+Jcfo7cr89fv9+OwfmcKs3ue7rzTOSjjtOFJx+895TI/X75EB92WsPHEUz21weNvO/6hgafMvOmye85zPg8+SDqAk+jfV8Rh/s5VX5460GiBNWn9NYH/ZzOvDVh6TKf2XO+qu9G2p3l5y0Lx3Ejn92bjM+nfok893tP/eoJw5NmVXesvI5dX6LXWSM+fi8Vj7jGipOd02CWn7O8dfw8PnFv8XwXIxPasbKn90M88tiTKuSi+yh6DhZi6UNB9st8LH5oGfJUiPc85mwFrg4MqrBixU1Yt1udN2M6cjCCK6Kn34vTDTkoedKMIwwsjTp+VxryKh/09anYcmUtxFJeF3rQf5Dtv8d4xtIlKFkxgv4TTjE6d2WLsHkm7hCpekl1wPZztShRe2168VZzORrrbTVv7soaVDn8C7jaWdpa6xsbUdm8EW0eFbS5j51fsxFQWoH4YXFYaZRq2b6PZAy531yChR1H8Y7Olu52tLDzbxP5YZtqSm4tQntdE/qWlTvTp843e2je5wQW7ui08ljcM2FziJkP81mvAzje94kI2cxHHbfPhlLj8/JkvaQbuYNsJxpRhwUp9dEYD/VBI+97vHkXjlfXYI1pTRzqQDvrsbcZ/hGiV2/GWVrreN+C6kNVq/1eXl/MEul+ThYPf3d3J6kdENoUVx1Of31g991Tx/KvNcq3h9Vn088kvxwVRllp+Lul8yB3VhHQ0Y+PecCnLLywOtnJfRr0xp5Vm23E9ez4OvM7upEdZ/vj9D+49N7R6M8YT30RBNdZC54/Z5p8yojV11rzPfL5fpjaNFGncyf26IySb3wdT2x7WIWcDJ//jAkA06I28KaZgm9vNqgDJnOmOwSNu7VjpPBTGGMuXMZVTEHeDBUW5CNvjo8wFBrVYNUDW/xUrUN96HOp5wtv4B8rNyye1o1oYR/kqlY/YcQH/ZGIl/IiXK9+ihdqt/HhzV+FB6rtj0LPsV3so7TRm47SChQzgaLim/pV7EA/ewcvfdTvip8T8JJnMFotL50DeR7xjykrvz1utWlIxmF94I50HofiT/pxnAlGldYzsk2YqkyUAB54nFOOopnqJ0MI+6GEw+hws0olF+46nXmd9vrAxCHub7Sw2HhIH5xmHz9TAFA8y8gVIVipZxFlkQTi+iLMdric5WL2jX4CvD/CtyQacdUXRrQ6a5GLRcv8HSyFycK4R2WzOhCFCSlETJo0CfesWYXvPbAJ1147Se11klcwBTh4Odi/oPtl7GFSmt2734alW9WxbGHGNEzGZxh2+EAMYfg0MLlwugqniPxiFLt63QKx3y3ly80hlXNb3ep+NLbWo2917J6Of6OdHCW3sl6lcCrjveUguy8XmlpUr9N2MnP0fCykBsPxccto5Afd6UgnP5YpY9zVhwBmFmGh6DW6n1PXHW7/Zg20GhIttk7W8xQXjy68YZEChE6bZhTqg4ovWmMs02fmpaElGA1EWbo1RPEJP3ETs74kBtfuFbO66/gedTdiwWY43j0+yigWE06I+NpXZ+OJbT/EksWL1J4ASueiAAN482l/iVpoKsxePBMqfDURQcwoQZFpNuDOkYk6ViaLSkPPK/YzDrftE2acMtcQUC2hpt6xkqvMWM+lzutUZsN6ZEzqxo56rCldhe07wHqqPloNC+kJv9BtUkgWrqJEHbZsaEKfX68zGqJHugvPGc5t/s52MRCNbPxqUn9UD9fHkS86vAfDvs7N7Xbes8b8OdZbcX8sdX1J3JlvgtQHoXJnPUuP45tGCph2vjKhos5PExEHyThWioalA1Wtfo3VaNQHKayBm64Cvj2iF28IiNK5UwXiQb2buoPD05qQY6UoS6f2JVEHU/mMOh+5AOnSpsSsL4nC3rMbj+KtPhVkCEHb1KiwsidNhIs7l9+O2h98H9OmTVV7osFND8tR0HDIYbLQozPyKtegZAUTMvSxpmlY2pwjD8ZFPhY/eRNQ/aK8vgJYKnwXDPSoi7lduArW2M91piF5WBp2O59xT/UULNU+E6MEH0bWdiO3pdpqNNv7mjd4srHdrl7I3JX1rKfBVXtmw2Gq+uTYdluNZ6uFxcehQ98rWsPjh/xoHmdR2OYKhlDBx2I+6lhPEpvLVBpno/JMPd5PWPUs1fjHjXjS4XUfBFeXt1UbeS0ac9vWrJH2e9aDDDGcLOvrQ1wo1f+Z1SqNajNGdzjLuQz9NaM9xwDLp9W7xK+W1UYa2aYb9NGoD8L0wE1XjjTYZaWH0+r6sqCvJq4etI0yjan4xbwXLBw/vCylj45O34LNRYZvghRM5DFWd1lY38t6d8XcIjofy9C+rNP1DLHqS+KUrFuCvmZbUrHfIxV3E3uGHbFVOrR2BjFKSOm6vyaMc2YMeE+LtRPmS5suRC+Ff2TSYHceX6jeFMIISklC9SEDGcP6QKSVCe1YSYwm0rZpTcaUjQztxxZuMzRGDhABdO8S6tiUmxAyCaoP8TMR6sMEhYQIYtQQakel8ku9b0UaUTZlrqot9rUNEza8x8nyajUfNeHnGT4OoPqQABOgPkxwyJxBEARBEEQoSBNBEARBEEQoSIggCIIgCCIUJEQQBEEQBBEKEiIIgiAIgggFCREEQRAEQYSChAiCIAiCIEJBQzzj4OTT5gqdhaM+LXRMLhzBC3O7gOb7scm15kXSBKzpUdCuViMNAV/9dM/h2fYS6QqZzxmYv6POP+Gvv3wS21UIP5iHT//j76tANJzXLfubRWi5M7mF5gmCIKJBmogY8AZPNmx6tc7sa+B447w9YCGxmJSulc8t1vXIsVYtDStAjCVJ5cOoMYzX7meCABccPv2u3OISIDi/j++JaxbhuTvULoIgiDRCQkQMhgdGgK1zM1twmLEMm1jDnnItxCgz76HsFNJSy2V8/Aaw5ZZ4BQeCIIixg8wZMRAqdizHlofmqz0GyoxwVQWx4iZLRS9U9p4VMXuxd+ohjFhmhyG8veFF9ByURyF6+g9isV5eXMR/GWVX5uI0u+682Gmq+2V8cj8w2WXOcJphTJwmA+d5AeYEkZazKDLTx+HmjqZpWFdzGXu02cPIB4n7ORmevGLCmiDInOGNw2FSiVIW8eVDsmWhEIs/7cJCn5UM40OaJPDT7+J7fqtH9byNL3/nsgowfE0dXJvxDo4s9TNnyGMPMEFFs8V1rw+eeRXLd6oApuHQp4vxhypEEAThgAsRhJueyKvXPRpp9NmePzCozhmMHN15ODKkQvoa+7gMv9qlgpyul1gcL0U+FAF2/XoW584eERKI489Ejn6qwp8ejjyv7qvj+XCn6xqBjMu+txP/ayTi2Hr7OYYOPGOk0UCkxUibRqTZjMOdD97nFPcw7mnhyB8Tn7xyEKssJMH5kMKy6GqIzCosjqzff1HtiJMPjkZmzHjFZ/tJ5CcX1DmRX0Se/fEv1G/GhX+I3MfOefYDFbYYivyk+pXIfa95cjjS/WMWpxmHC3G8+h8iwyo8/NpPWBqORrpVmCAIwoTMGb7Mx93KB2LpVhbculz6BThMBvlY/JDZ256POezcqwODjvD5DtsGf7JjAJObl8ie64Ue9B9kvd17DA1H6RKUrBhB/4khtUNi9rjzCnOA04OsP5kKenG6gaXhSfs58ipvQQEGcDqhBbJYj9zSPLjyQTwnO+6nyYmX7qPoiRpHrLKIQSrLorQWA+dCLDRUslj5QMzDFhbk2gEZvgt3TZenCJ8HU+swvQjL7gBO/TrB2rDzAj5QP538E/5h5xfw3KNl+JLa86U7b2TpuYx/6FE7CIIgDEiISAKuht8+9TFrc6vM591zEyY3nMJJEZINdtHNSgi5cBlXMQV5pmmANYZ5c9yNXw6mGufkVT6ILQ5TQRJcGMQI+9cz136G7YZ5JCWI50yO4fOfASumRX3mWGURlUwoizjhpoYvf1lvTrNEPPzhf/wuDv3gMpbrOO7vxEV1DINXcQq/xQOl5j2MUSIEQRAuSIgIS/fL2FPNOpBqtIKltTCZUYKiFapX330K57feYtvYZ0zDZHyG4QsqLBjC8GlgcqHV9UwvM6azZpHb/u1n0Fsmjb7IK5gCHLwcrH2JpyyikQllEQcXX38Ny3dyHwWtpQg3CoMLEtb1TGSc/8w/yQPTJ2MuvoDnuvVxe/P1zyAIYsJDQkRIRO/Y7L2yhszb+83H4ppCYdLgpoyCckNdLgSMEfS8Yps7htv2CbV9WYpHWQi1u6URMeFqf5aGh4+kyDziQ+lch3nE6UQZJyqONwOGZ8ZXFlHyIZVlwR0rb5iNDQcuqR2p4+OPfgvc8UVcr8IXX+9MWBPhJA9f+ffqp+D38R9+8Fs88KihnSAIgogCjc6IQfDoDJc3/4qbsPT2s3hz4BbXuWoEhWfEAsc5usLj7R80IkLDR0b4TAQlfDgcaXCPPHDexzt6wTgecA/LN0Achzc+M8/MOHg+8JEcfESHyA+fkRsC1+gIT16Z/gnxlkW0fEiyLDRpHZ3hnYTqEBOJXpilRmG4R25orBEc3pEZuKMAvS/aPhAc5+gMDo3QIAjCHxIiCIIgCIIIBZkzCIIgCIIIBQkRBEEQBEGEgoQIgiAIgiBCQUIEQRAEQRChICGCIAiCIIhQkBBBEARBEEQoSIggCIIgCCIUJEQQBEEQBBEKEiIIgiAIgggFzVgZCzVls7kEdLx4p5Nm+E5/nSRiSuYuoPl+Y6nydCGnh0aI/IiNd1pnOV1zLJzXLfsbNQ00QRAEkVZIE5Fu+DoWxuqYo710dPbA13VgggAXHPTqkXEJEJzfx/fENeFWtSQIgiDCQUJELErXisY/k5bG9jBjGTaxNKZfC5FOLuPjN4Att8QrOBAEQRBjDQkRQXATwdTHsF1te9VS1g5c52yf+rLPctsB6GvN5a3VvhfahkSQL5vNj4u/+h4bzGW7uWlB39u+zoSbVPh+Mw73efwcfcz3GbhJxzruXEnTIo1LYAv4CpVfftXenvkndSBeuKbDuJ5tf92jDin46pX28bfxgdpPEARB+ENCRBCqd7/lynIUqF1OWAM+tws57Yapwlw6WtNwyGiA2aaFBh7/qZswmR2XAoqMz+PXwI7v4Uta67Qc7MJrlhAwH3eL/fejZIXa5cPV6hex5/BsrOPnsnuieh/eviCPCb+N0zfJY2xb1/wZ3jQFCeET8hlKTsnjwfkREks4kD4N27+jG/HX8NqgPEX4PLw7wzZzdBdg2c6THiEgGh888w4e+PeGqYRt5lLbYvnr/7sAvepY79/8v1hOggRBEERUSIhIkvMdhibBD7dPxEPz1QEGFyTaC3G+4mXsfZr18Nm5HpMEd8S0rpmPhc05uDpgta7xYTpzzpiOHIzgihAienG6IQclT9p+GnmVtzAhYQCnleblZMcAJjevweIZMhxIaS0Gzp3F7pW5akeclCxWjfo8bGHBLT/VjfxduGu6PEX4PJj+EdOLsOwO4NSvbZ1MXOy8ECAU/BP+YecX8NyjZfiS2vOlO29k6bmMf0hAUCEIgphokBARGq4FYL1yQ9PgZ06ISelaLN06gPMNhVhqChjROD1omDTiYM50w5lTai+Ej8eFQSZOjKBnrqEpcZgrhjB8Wv0cY5ymhnfwwBvqQJz84X/8Lg794DKW6zju78RFdQyDV3EKv8UDpeY9jFEiBEEQhC8kRCSFNiewTZgJXvT3nYgC91Xg5oSl3Izg8HfwZ3hgxCUUJIHQSuQYpgp7yyRH0ouvv4blO6fhkDI1hB2FwQUJ63omKs3XfhXTJ2MuvoDnuvVxezNNHgRBEIQTEiJShWiQE6T7ZeyphjAnzKtcgxJ0YY/paOnmwhF0NgAF5XFqLGIyH3O2jqDn4SDhJR/zbs/B1cM96ricI2K0HSs//ui3wB1fxPUqfPH1zoQ1EU7y8JV/r34Kfh//4Qe/xQOPGtoJgiAIIiY02VQAXEOwp5r1+l1M1o6PfCTF3C5cVfs51jFF1Mmm1CRWjmt0nNyP4qH5PmngWoMHbf8EFYcHdT1HpAF22A9vOgux1HISHcLbG15Ez0ERQEH7/Zja9CKu1Li0FVyIWL0LC3d0Ju4XIZATRuGnfr1/7yRUh3ASL8xSk0px58zvXFYHDazJqvjIDJcJ5I4C9L5o+0BwhHPlThUQcO3HYvyhChEEQRBOSIjIYIQQwUdV0ARVBEEQRAZC5gyCIAiCIEJBQgRBEARBEKEgcwZBEARBEKEgTQRBEARBEKEgIYIgCIIgiFCQEEEQBEEQRChIiCAIgiAIIhQkRBAEQRAEEQoSIgiCIAiCCAUJEUR0+NTa1gqf9ha80BifJjvkiqaBDOFXq6/Bz1e/giuO3y7+8Sn8/Bp27IkTaocbdS0/x/c8fbwSv/pE7TLR8avtF/+o9it+/QTf/xR+7fpNEAQxXiEhgohO6VprldLJxoqfY7LK59xCTFU/Hb8ZotF+uxA5q9QON5+8gu5rpuP/uWsQfxSJyO2Rm9VBhjj+vwF3Pal2uODHb+5Bzsfq2hNP4vObfYSNVYX4ovrp+E0QBDEOISGCyALyMWmu+un4rfjHp3CxmAkHjyxSO7z8+j//KfDKIEq/ay+QZjOEX31/AF+KtOGrhWqXC379vzz+EL46U+34441MYPkJRv6zrc34YvGfqF/O3wRBEOMVmrEyALH41cAtWFf4rr2Spl6BU4a8K3kax+UKnFOM1TA5cilttLOePF7G9qZpKJnThZ4GvgLochQdPiRWyyzgx3VP37VSp+MYJ0oa5P3exdRTt+DKXL2Et2slUIZ7FU/3aqQCcZ+zKHJdK4hjRVOelvobVqOlvB7v716FMOt8xoabI6ZjZG6nU8uAE/jFNU/jdz9mQoIWAoLgJguhcTDP5deXsT8R/MEfq13ivIeBVX+H4tZ7HFoRgiCIiQJpIqLRcEgIEkKdf2U5Cg524TXL1j+Et18B7hLHvMfzKm9BAQZw2vAdGG57F+dZI79QCwHs/P7C+7GuOQdXqw+J5bWXbgXOd/TK40KA+MwyIXCTwkiF6Y8QPQ2SEfTM5YKEPGfpVhZ++AiG1VEu7Lx5mgkeVhzbvAJENJQAkcOEG3n9/ShZoY5lCp8M4LcowaRPTJ+GAL+HQP4Ev6uECmE6+atCFJ94Etg/gM/lboIgiAkHCRHR4L36h+arwHws5I39wKAK52PxQ+YS3fMxhwkA9nEZtgQC1uCfPDyCybeXGNcUokw32Eq4yCvMkWHGyY4B1qNfY/f8ZyxDmSPOWGmQFLTb2oN55YVMeLlsCRGCg2dx8oL6nSDDJ87i6tblcfhIzEfdubMYSJsWIhYPY/DtRZY/RDETvkauT9TxkWskrpGmE619IL8HgiAmMCREJMrpQUcv3hyxYJoEOPPuuQmTG07hJA9c6EH/QUNoiMkQhk8zgaD6xaj3iJWGWORVPoh1zUDPXB3HyzK9cTI8oEw9Gc+TmG6YOKZ+9yHW+D+M/+oaYRHMT5jQwU0iEcuv4spAj/hLEAQxUSEhIgFEgzlnuuz5d7+MPdWwTQ1s46YIBzNKULRCmjR4jx3NSwz/iFjkI2+O9C3Q8Vub1o7Ek4Y44IKEff0A3txgmzvGBTML8QX04P/nMV/YJoro3Izfe5z9MR0rGZ/3/QS/c9ci8ocgCGLCQkJEvFw4gk7Wyy8olw348PnP2P9TkKdNDaxB92oB8rG4phDnm57Fa9VTEtBCSLjp4Wr1PrwdYGqILw2JYZpT4kGYR7S2hftobHhROId64Y6Vs1G4YT8uqT2jBxcCnCMprrz6ND5fVYlpcQkRwFcWPwn8qMyeG+Ifn8Lgj/4E/+5biZUpQRDEeIKEiGgc7MIebSoQIxPskRF5lWtQsoL12vXxpmlY2uzTAJfORcHBEVzdOjcBLYSCz9HQPsUwNchNO1bGnYYo8JEZZtxiRIk5AoU7d/JjYvQFd9KU51nOnSyNQnshrn8R/bffH0obkhRijgfuLDkdI/tZmDX2wnnSmJDqK48MIueU2s+2vtcqHaMq5ORQbOMjLoTpQoYtoeGPf6jmhtDnuUdwEARBTDxoiGcAYojm4dnOIZ2hMIZ1xnQ+JAiCIIjsgTQRaebk04dwPq7RCwRBEASRXZAQkRbk+hFc7S/mYLCGiRIEQRDE+IHMGQRBEARBhII0EQRBEARBhIKECIIgCIIgQkFCBEEQBEEQoSAhgiAIgiCIUJAQQRAEQRBEKEiISBmXsG/DbBTeMBsbDoz+xM4EQRDEWGK3AYWNeqXl8c/4FiIuHMELYjpmvT0buA5Fslw6UIda1OP9c2exe+XYLHad0XQ3ypfLtdXr6bM9yBcytQKZesnF+h3mbxc6rT4fgp5GO+16c6fReU4j/Nb6vHSgyvdajrxeXmf+TgfxpHVMGdqPDQH5lDQJ18nYiHL1qVPpLsfsQa2ho7e4G1vndZnZUcvFmt1nMXCuFVXNq5OqR9lEVgkRrx96g22HVSgOZizDJrU6Jd/EktcPp2eFyo/7OrBwWTmrRoQvpbXs5WIvWGc9FqIcjZ38ZTuLurGYyfPGYruczN8M8bE/VoTGcrXDh4U7OuWzqM0UGnkjUnlGCpP8WFv1LlQ6GhUpvGzBElSpPb6UF+F69dPxO4WItDZvRJv1LLUoUceyBVFeYXt9mVQnkySpfBg1eN1fjZbqVlXf2FYb70R881EnrumM+m5mBvNxWzXQ91EmCjqpJ+s0EVyQaNz5Y1y+rJdWip+8ginAwctpECIu4ewZ9ZPIYHIx+0b10/FbwXqmzxUzAaE27FeqFy2bO1BVs8oSTErWsQaqow4tqlfCNVb9NVzwKJY7fLi+2L6/+TvVcMEX1RWZLTjkr8Ju1nhku3avpJY3gNknpKWWT9DPqlzVrTSD73giK80Zv/zVGfzo8adw9Ng7ak98nOwYAPxW01RqzXSoyIR6k/UQtPpabG51p1LZ+h2X17nVoFK1J9RlPO3s/H1KLb3hQK9U0+vjGpfq1qNqi5IGeb8q7BsyVYo8rA4rnKrxEPnpSEMZatkHx4tKgzsP40R8zFXvx/wtYD3TpBqr7na0YCNuM3qyPXvqcJz91b2S3JUtMXu6/JyB3VIQMX+PKiHrpF3mylxkxeGqLyJ+HodZp8w4zf3euqTrWmUzCzSvts5zp8tZJ91pjoF6ty6Z746n3jmfcwETIk0c733g/d155Xo/o5RFfPmQbFko0vidFLi+UQlrVtz55HkGVz6E/IYQLvi019nCawd/Grl34ybH9uxzz0c+//w36gwful6KNF73qNzWH44Mqd0OuhoiswqLI+v3X1Q7EqUn8lThfZG9gypocHH/fSLuWQ09ag8/17zXxcjehlb2v8Z9XIaf6lJBhohzvbrGSLu+Fz/3gwbjnuIcI32DrZH1jjjjS4MZh4hfp4HhSFM0xL198sovTev9ykSlJZ57hUbe2y4zG/HcIi/UZqaD57MVtvPQURYW7jweLXRZejc7LYnXSVnHGiIfiIBP/gXUQX5fHY9/PgXVA4n/NRLfOmql0SCoTqp3y69MJd7nDHwPHPljElzXJLHKQhKcDyksC5UfQWURiM5Hz2bmOXsu836e74EmqD741EkH3nxw149UEvf3cByQ9Y6VPb0f4pHHnlQhH0rXWj4RW2ouY4+fc6WyjSbeC9WSbTtuO9eCNflqt5vyerxv9Xjno2pHOY73faLCuVhTa/Y0pT3NPi7DLce0VH4J7xxx+19sxAM67exeVayna6rBe47twsId9Xb68lfhAUecsdIgqWq1n7Hk1o1ARz8+lkFJx1G849JOxMul947ieHVrHPZoZRsdi945Q6ql9daJRtRhgbtHI3pUTSjqtOvUwuKZ4u/Yo23L3F+DBQ37tF3/E62Tuo5tlOr6oQ60d5SjcZ2p5dmIxnK2/z1n36+q1fZBEHX2TF+Keoe9eKuZpaHefo7clTWowi685dbCRWUj2qy65soH8ZzseNx2fR+6d6E2ahzxvZuBpLIswn4nte8JdzhkQX4fGTa/maxemnmQX44KloRE/QrMOunAp6ykqTH8NysaQoNYD2y5IY2amwwh64WIkm98HU9se1iFYlC6BCUrRtB/IlW1RnvjVuAtH/V+VIwX1KnyVKpJA1HZm9ulak69DJbQEBPpr3F8c1nUe8RKQyz4S/P+DqC2TMcRpLr1R9jnsw5W/jUuYaqDCRVNRXjf+kBmp79MQnVSNdgV31R18pN+HEcRZjuEaumD4mz8ylFkyFYpNd0M9aEPHUZ95NtqtKjDKUE8Z3Jc+qg/puNsUu9mJpRFnDhNT0HmzCC4cCxHReg4HI23yIddqLTiZ1uZNDWmA1FmdcD2MEJXlpG1QsSkSZNwz5pV+N4Dm3DttZPU3vjIKXC8USlgJop8JPsgRIOpRwWwXuuCzbA8w/kmeogmQiqXPSjeY4fu8cWF/GC4RxSITUvl8aQhDsSHx7rePSphfCIaAU1phexpGY6V0pnMaGCzgQTrpPAFqa6xe5Uzi7AQ/TjrEKqlMDVqGpn8YhQbIy7MLZNGX+TOKvJq9EySfTczoSzigDe6zpFCYUZh2Fo2PuIGrONk+ZaIfDDj11sUDXISTKTRelkpRHztq7PxxLYfYsniRWpPfAy37UPPwULMcX9EhPp5lNROQ/vxHOtJaA9l2QgZPQWWFm9PQ/Z4W5qqsGVzUQJaCAk3PRzfXBeoKYkvDYmR6KgCYR6xerbcTJQex8qUwspyy2b2sbCEOqXmX21rYXoaWe+3fAkWpfpDpZ3I0pAPCdXJY73ClOHwuBcCRgdq99iqZTGPSkIatPgQ9cyqNya8LFga6tJYT4TQaJtHeEPodqyMiYqjMsCJMN53MzAfUlkWafxOio6VoZGRaVSBMAgh0kAJvUH5bKOdS12aVPW+iWcX+SA1z1JLlJjWdbyRdULEnctvR+0Pvo9p06aqPcEMtz1rTDT1GPYcno11V9Z6R2ekG67iFhWTq9COooL1KnRvKHdlPZO4DTVbUxHadvg0wPxj09GB42GG5HGbZGuRS7Vre4DHnYYouEdmLGDCjm1LZqgPkFQh2mpmq6fA0ii0F+L6MrQv6wylDUkKy7tbCTBaNWo11C7vblWWprqS+0zYzzFbzhnhlw9KtW6ZmRL1RBcfRfbXGD6aKhKqkyyP+DNyPxwbbuZzqpZFfUhkiKOVT7IsgvLJk1bjgy7K4kbj3XMdj1knY8J6vq1MkFotr1twZAneZ2Ebo76s3sXCOp2m6dOrhjfTEG9ZBOdDCspiFCipZWk0vpML+mqc73+s+mC9u3pbjb4dnYbWiedDJxrPOPPZK4TLjgAvq+d8hKXiWakVgscD13DvSvWbSALeiPI5Btz2L9E74R+XpO2LXEJeDRjOT8TERvZ8uao7PSpZgpiQcIGFCX2mo2miBLUH45Gsd6zMFLg68fiRjrSpToVaPK7RC8TEQE5shXSYSghiwnIJ+5q41sg530ticEfjiaO1ICEiRQh1Ih/ud0MqbYa2OlSoxZMZSkaMG6QdVk0fPMoe9AQxbhEmkzK1BlIYc4/+Xk+sDh+ZMwiCIAiCCAVpIgiCIAiCCAUJEQRBEARBhIKECIIgCIIgQkFCBEEQBEEQoSAhgiAIgiCIUJAQkTLs4ZijMn02QRAEkUEYM5QmOgNtFjNhhAg9BfYLbQELSCSJmOtdjC8e/6u2hcKatta5BU8xLF/I1Apk6iUXU92av13otAZ+CIyPhc95zinAvfPqy3ke9HHv6q/yenmd+TsdxErrmGOuWZBqEq6TsRFl61On0l2O2YNem0JtcTe2zusys6PGp9bmi3rJacaTqUfZRFYJEa8feoNth1UoAS4cwWvVwOQVKpwGJtKqbaHg63fwVfM667HQWF1xTCZk0SuocszfDPGxP1aEwBUERaMm1/awVgI0JgHjjYiYGEwdc69mKqeq5msXqGvFmiY+jYu5PHSMpaLDItLqWDkxs9ZTiAdRXmF7fZlUJ5MkqXwYNbjwrSZJ03Uu7gn09AqdYVb3HG3k+ht9H2WioJN6sk4TwQWJxp0/xuXLV9Se2Jx8pQtoXoOyOWpHypFL6xKZjlwWXWL+VrCeKZ/vfqA2+CvVs6cO2BE0J76citpcCrxkHWugrEWyLuGdI+aqn4zSjWLhJHOxH3MF1ERXQ00EsXJimAXdRpP8VdjNGo9s1+7xxcCyUUhLLXxZfHsFY2J8kJXmjF/+6gx+9PhTOHrsHbUnCt0v482GQpRVRllgQKk106EiE+pN1kMQf7U6zq3udK9A5+q5etWgUrUn1GU87ez8fUotveFAr6Vqd6jTXKpbj6otShrk/bja3VQpBqnh7S3h/HSkIT1LgYuPuer9mL8FrGcavbHic+KXo+KbAed0t6PFNec+FzqOs79mr8Q5p74UZo73faLCfAr1Fms6a/P3qBKyTtpl7jL5uOuLiJ/HYdYpM05zv7cu6bomlsV2rIDpTJezTrrTHAP1bl0y3x1PvXM+p3spcMd7H3h/d1653s8oZRFfPiRbFoo0ficFrm9UwpoVdz55nsGVDyG/IYQLPu11tvDawZ9G7t24ybE9+9zzkc8//406w81g5Oj6RyOvdsnQhzsfjTx/YFAGTLoaIrMKiyPr919UOxKlJ/JU4X2RvT5RX9x/n4h7VkOP2sPPNe91MbK3oZX9r3Efl+Gn1DNwRJzr1TVG2vW9+LkfNBj3FOcY6Rtsjax3xBlfGsw4RPw6DQxHmqIh7u2TV35pWu9XJiot8dwrNPLedpkpRBobIh+oPJeb8Sx8v5UuOw/NsnDnm35uz73Shi5L72bndeJ1UtYxljci4JN/AXWQ31fH46izFkH1QOJ/jcS3jlppNAiqk7qcfcpU4n3OwPfAkT8mAXXNIlZZSILzIYVlofIjqCwC0fno2cw8Z89l3k+lyVHHBEH1wadOOvDmg7t+pJK4v4fjgKx3rOzp/RCPPPakCjkZbtvHJNGbsDCWjVPZRhNXmWrJth23nYuyHHO5uXjWfFTtKDd6nrlYU2v2NKU9zT4uwy3HtFSuVOIO/4uNeECnnd2rij2vqQbvObYLC3fU2+nLX4UHHHHGSoOkqtV+xpJbNwId/fhYBiUdR/FOSL/VS+8dxfG4Fq1RttExW3hqFyqPVVg23fd3wOvTIHpUTSjqtOvUwuKZ4m9Jbae1UJvoDdUBFSyvRw9tW+b+Gixo2Kft+p9ondR1TJlphjrQ3lGOxnWmloebbdj+95x9P3O5ZVFnz/SlqHcotUaN9fZz5K6sQRUrv7fcWriobESbVddc+SCekx2P267vQ/cu1EaNI753M5BUlkXY76T2PeEOhyzI7yPD5jeT1UszD/LLUcGSkKhfgVknHfiUlTQ1hv9mRUNoEOuBLewdT5vmJkPIeiGi5BtfxxPbHlYhk17WKLHjTy5DntqTerQ3bgXe8lHvR8V4QZ0qT6WaNBCVvbldNlTqZbCEhphIf43jm8ui3iNWGmLBXxrZoOo4fNShURD2+azA+SHyNEwdTEBoKsL71gfS7S+j64zadvOPtS1kZAoJ1UnVYFtmnk/6cRxFmO0Qqr1mGybxosh47JSabob60IcOoz7ybTVa1OGUIJ4zOS591B/TcTapdzMTyiJOnKanIHNmEFw4lqMidByOxlvkA+sAWPGzrUyaGtOBKDPWQdgeRujKMrJWiJg0aRLuWbMK33tgE669dpLaa9B9Cucxgp65j4mhnXx7swG4Wv0i+/0s3r6gzksJM1HkI9kHIRpMPSqA9VoXbIblGc430UM0EVK5bKh4jx2mY15M5Adj4Q5jNIHedGMYTxriQHx4rOudoxLGBfnFKEY/znqERfUBLq2QPS3DsVI6k0Xxo1A9xcDjY0GCdVL4glTX2L3KmUVY6MknKUyNmrAkysoecWFumTT6IndWkVejZ5Lsu5kJZREHvNF1jhQKMwrD1rLxETdgHSfLt0Tkgxm/3qJokJNgIo3Wy0oh4mtfnY0ntv0QSxYvUnt8KF2LLVe2ObalW4HJzfez3w9i8Qx1Hkeon0dJ7TS0H8+xnoT2UBY9EbOnwNLi7Wmw3mvNRrQ0VWHL5qIEtBASbno4vrkuUFMSXxoSI9FRBcI8YvVsuZkoPY6VycFVyax3u8dWmV460ISW8iVYJPJOqflX21qYnkbW+7WOu+COYKw3BNPUFC/aiSwN+ZBQnTzWK0wZDo97IWC486lOqO0TrbuxEPXMqjcmqqzq0lhPhNBoa6F4Q+h2rIyJiqMywIkw3nczMB9SWRZp/E6KjpWhkZFpVIEwCCHSQAm9Qflso51LXZpU9b6JZxf5IDXPUkuUmNZ1vJF1QsSdy29H7Q++j2nTpqo9WQBXcYuKyVVoR1HBehW6N5S7sl4M8bPUbE1FaNvh0wDzj01HB46HGZLHbZJiPgJ1D7VpKT3uNETBPTJDzIVgqkPVB0iqEG01s9VTYGkU2gtxvZyHIYw2JCks724lwGjVqNFQC5+GM7bKdMGRJXjfeE4+4sN+jtlyzgi/fOCbqguh1J3io8j+WsNHU0dCdZLlEX9G7odjw002TtWynBsjgSGOVj7JsrDMca5GwJNW44MuyuJG491zHY9ZJ2PCer6tTJBaLa8TdYGFbYzRAKt3sbBOp2n69KrhzTTEWxbB+ZCCshgFSmpZGo3v5IK+Guf7H6s+WO+u3lajb0enoXXi+eB8d8XmEcJlR4CXlTnsWuMcWUVwruHeleo3kQS8EeVzDLgbBNE7cTU04eAS8mrAcH4iJjay58tV3elRyRLEhIQLLEzoMx1NEyWoPRiPZL1jZabA1YnHj3SkTXUq1OJxjV4gJgZyYisEmUoIggjBJexr4loj53wvicEdjSeO1oKEiBQh1Ilq6F7qbIa2OlSoxQOHgRETCWmHVdMHj7IHPUGMW4TJpEytgRTG3KO/1xOrw0fmDIIgCIIgQkGaCIIgCIIgQkFCBEEQBEEQoSAhgiAIgiCIUJAQQRAEQRBEKEiIIAiCIAgiFCREEEQ6sWbam9hT4xKZjxw6THWVSIwsFCJ6sXfqY9ibwFS/J5+2F+HavuEIhtX+0UOm2UqD2F7GSXV03NH9snzGp2PNU58E6h6J1IPRpxf1aua7gRjjzsUHPJF1MFzT/MY/VXM6kesOWGmxBChji7l2QRbi95xsCy4TOZ9AategUHMUiDpk/raRU9NLAcH8rdEL6Ilp28djORFpYdSFiNcPvcG2wyo0Osx7SC7Ata45R+0JwYUjeCHJ1T8L2s3FwAbwZjYKEnHkw8mOARQ034TJDadCPd9w27NjJOylGLEcdTIz30UhfxV2i1UIW8XKoWERjUlaGwxz5US1hkMWNlBRhTy+Ng1/vs56LDRWDh2TyYb06sAc87fGXHY8YAlysRjemT7/ZyUIF2OiieCCROPOH+Py5Stqz8Rj3kPLUYABnM7onnQYenG6oRBzKktQtCKNz6dWab07k2eF+6Qfx9VPgiMXrPJfdZNIDrnkv8T8bWOurJvoKrsEEcSYmTN++asz+NHjT+HosXfUniho9bjYDuG82m0hesf6+GN4oS1gzesoOEwepoZAxz23C1cxgp659nmO+ySahguDLDYnzjSYqnppDnHHaffYh/D2BnZ+m04DS7/OM0ePXp5n3cPn2N5u5zlWGuLNh+5TOL9iGvKQj7w5wPkOn16nozzZptIhnoeF91SznDnYhT3WOYbmw5XPvuYMd/wOswrPSx6faWLy06zoKWzTZR/W8cvNbwlpqXLWW4h0uEwepvpcxy2WlXasIOm8T8w0OFT5q9Gidgchl7Y2ceaDY4VLEbe54iVHni+fhZtP2PEDKg0b9qNH2/VNbUeUfLDiGJKmGHcatJ+AKB9zNV5PumLgSEN6lrnnq5YOqKnxzd8aYa5Q06SbvwkiKfi016PJawd/Grl34ybH9uxzz0c+//w36gwXXS9FGq97JnL0UxWO9EReve7RyKtdKvjp4cjzZlgdf/7AoArbDB14JtK4/nBkSIU1H+581LFfnHfdS5EPVVgg7mOmwyBmGlxpZrjvyZ/TPO5OgzftZpyDkaPrWXzifLlfnOtIszpnZw8PCJxp0HHY6Uw4Hxg8Tuu5Rdm5rveUp5egcnLizVOBJ373c6v8Mc7xlIXgYmTv+uLIrMKGyAdqT6Jc3H9fZFaDnd82Km7jmDh3fSs7IvmggR03wuK4b1p6Ik8VFkeecufDYGtkvWO/PG/9fh2jRNzHN41xpKGrgYXvi+y1XjVXWsRxM83eNFzc32Bc776nzCdHmh1xyvjE+ep5xbOY58TMBxWH8Rzu5+a4y8cXcS8zPxSeNPg8l8B4HrVnTAh6DoLwISMcK3t6P8Qjjz2pQk64fX1y8xosnqF2uBg+cRZXty431NrzsbA5B1cP98RpU+fq9xyUPLmM9Z4leZW3JGRqiDcN5yt0z/cxvInl2LLbvidXz5uq+bybZ2MyPsOw6iGL8MGzOKl7zLzHj0LMMa6Z3LwE89TvghoW94zpsLxALvSg/2Ahlj5k907m3XOTM07G5Ob7rXS40xAbmZdFN6tlJUvnuvJxCG83RS/PZOH1BVtvMeLPx+KaQsDln1HQ/qB1zrxydvzgZVd9ycWa3dy2HWIhHtU734J6T29QMNSB9o6NaAtcUI2vAliOxnq7p5i7sgZV2IW34qyTl947iuOORYDmo2pHIivNxk5Dz7FdWLijPsYy5LtQafXA5VL25vLIuStrHdcLe3xHPz4WoVwsWuZMM78nqiscZVJVo9PI0ruO5enMIiwU4fjzoarVXk7dmYbk8aYhiPmo474VY60hEP429UBdeK0IMXHICCGi5BtfxxPbHlYhkyEMn1Y/AxgeGGENxCGrceabUIfHizArONXzviaTKMSbBtOxcovRmEtcIziE2cBgxjKUbR1B/wmpQ5XClS00xOTCZRYfd+aMco9kEYLNFCa8qDCmY+oKYOS81vsO4spBIKcgXWtXy/oyuXC6CitmTEtQGEoS5Wi3HXX+ToSxfCWEQ2YHast04ysb4FimApOP+zpcZgp/k0kgMdNwCWfPqJ9RMR0rfZwNXaaGwtV8GWYbIbh0HMU7ogopwYYLCnGSdD6kAJGGbEKUSR1QnwECDZHxjKkQMWnSJNyzZhW+98AmXHvtJLU3MfIKWV97K+vV68ZZb2YvPxqit56DklOu69kWr9Ne0mkQ/ghMcDHjOHUTa/ic8B6z1G5I58WyygQaY9GQFmKpmT6x2T3yZBFaAIeg8iJ6mNBga2TcQkWqkX4YVwcGVVghBChTuBkdcmcVhXMizC9GseHlb27xevwLxzm+VLjr+rgbhRSkITa9qC9jjdWOTjt+7njpYD5uq+5A+3usP9zdjpbqmhiaDydJ58NEhAu55UuwKF2yPjGuGDMh4mtfnY0ntv0QSxYvUnv8yMe8202zAO+tO7UEQuXecCiJ+QLmYw7r4fc8HGNIoRA2bE2ASfJpkD10uwfNhIqHfbQEpUtQgi68tuFdjCSiheDMkKMl3kx27obAfOCCjUvbwjcuDFkmE1We1fuiDhHNK5gCuMws8SJMEw3vGvGzOlORoNZGkEbHytIKh1mAO+85e8ey4aytC69Kzv3mEixkPfBY80eIRtZX0ImVBrepgTsFJqYtkdoOoHiWbs5ZHC5NBKdkXT2wuQ4bmvoT0kJw4s2HWAiB0NKIJIYwj1h5zOtVehwrCWIsGBMh4s7lt6P2B9/HtGlT1Z5g8irXiIZTeuofAtrvRwnrzVrMWIZNrKEaMfwN+GaPGLDNBE6vf3sEBp9HYukcczSA87hkPu5uL2QN4IvWOdY9YqYhFu64X8SVGj4E1I1qhJnAYfkdxE0+Fu9meXfaaXZJfD6GgHwQZiGnj4ZACC+20JFX+SDWNcNpPnKnoXQtlnLBzjrHHj2hR3Bok5P2M7Hyml3rjP8QE7jux6ZEtDZpRw51bFmt1OtHluB9Vw+ce9e33WiOBnAKNPbsgrLh1nFZIw+4XbuzHn1qv97cExzlrqxHY7npt2DfI1YaxLXQx7m/QyeLSx2MB5bG7TvKrbQX3tCEolY+14KL/HJUlHfgOEL0juPMh5iU1qKNC1WWeccYnaFHqJTVsTTa51iCi7hW53EZ2pd1srA6RhBZzjXcu1L9JrIA3ojuOTwb6+I2lRBjBrctl/XjgTDOmYSB7L3zxtd0yiTSBBeKmorwPpl8iDjICMdKIk4uHMFrrAdjjiQhMhjhVxD/iArCn0sH6lCLemwnAWJUECNg/Ga7JAgfSBORDfDJkyq406L0OYjX4ZPIAHivTtj5+SgF0kgkAp/oSkyGRXk3Kti+OZTfRPyQEEEQBEEQRCjInEEQBEEQRChIiCAIgiAIIhQkRBAEQRAEEQoSIgiCIAiCCAUJEQRBEARBhIKEiIxDT7fsnlVPTYnr2U8QBEEQYwMN8cwwxFhtPg1y0GxxYhbEo6jotJcuJgiCIIixgDQRGQZfNnjhsvLg2eLUOgL9n6gwQRAEQYwRJERkFJdw9oz6SRAEQRAZTnYIEXzaZ7Eio9ycS27zVTr5Ko9DeHuDPsde9ZFz8mm5yqO9AqR7hU3zWu/1fM2KF8SqnvaKoN5VPhlqNT/yWSAIgiAmApkvRIh1Iz5Dyalt2HKFbWrJbacgwZeNfhH9t98vzhFLQT/sXF6aL10tVr9UcaB6nxIUuADxInrmLJfx8619CovPJUhgAG+KpcjlOUu3svDTvepYqvgE/R3lqPhmtKVvcjH7RqDlWKrvTRAEQRCJkfFCxMmOAUxuXoPFM9SOGctQthU43+FsRCc3349NldLTMK9gCnDwskOIwIqb7OWzZ0xHDhM8rnAh4UIP+g/moOSe+fyIpHQJSlaMoP+Eqa1wLn6VV5gDnB503qO0FgPnzoZYrliPyGjHbediO0yW1J7FwK3tQutRTytEEgRBEGNEhgsRQxg+LbUItqnhMbzZoA4b5BQYLW/pWmy5shbzVFAwZ7qxfPZ83H1FCQQXLuMqpiBPCymCfOTNYfcdGFRhTg6mGufkVT6ILVooSZpcrNnNBINzFXjrhirsc8ouHvjqhoXHKoTAUkcrehIEQRBjRIYLEbIx51oGy9Sgt4cMzUEyzJiGyfgMww7ThRReJhdOV+HRYiaKyjvQ/l40nwrpfFl1a4qenyAIgiBCkvHmjHnlhbhq+S+kgRklKFoxgp5XbPPIcNs+9BwsRJkyj8QNOVYSBEEQE4iMFyKEaUI4OtrmDL45HSuTIR+Ldy9HQcMhK+491VOw1G0OIQiCIAjCAc1YmWFwf4fnijujOGdyJ8wy9NeQPwRBEAQxtmS+JmKCcX1xOY4f6WCiQgBDHWjvKEfRTBUmCIIgiDGChIgMI3dlPRpRhwUe3wq1AFdZHbCjntbNIAiCIMYcMmcQBEEQBBEK0kQQBEEQBBEKEiIIgiAIgggFCREEQRAEQYSChAiCIAiCIEJBQgRBEARBEKEgIYIgAtGrqwYMt6UpzgmCmOBMgCGevdg79RBgLOOdPInHefJpY/VRc1ny0LjS0P0ytlcMyEOarctTt1DZBOTSgSosOLIE7+9eBd/5Q4f2Y0PZUVR0xl6+nSAIYjxCmohRYt5DcvXRdc05ak86KMRSa6VTtR7I0/bCYtnCcNuz2L7hCIZVeKz4uK8DC5eV+wsQnPxyVJR3oP8TFSYIgphgkBAxbpmPu9sLgYZTOKn2EIkgl1wnCIIggskOc4ZbVe9jDnCYCxiTm+/HJrGUt1b7LwcqDuG8OJqDklMPYvEMERA4r+c9etcqnj7mggKHKQGOa0R88JoTeC97z+HZvuaMVKdB3MuxIukQ3t7wInoOigDDyAdx/WeufJHn99/O83KQ5eO7mNo8BT3VLA2sDJbefhZvVo84zSYXjuCFuV24KkNGOXB4WbA4Tt2CK3O9ZSHTy+Lz4Covdz74mYf4suyrd2HhjmiLmUVDLnTWvowWQyMIggiECxEZzaeHI89f90zk6Kcq7MOHOx+NNK4/HBlSYSc9kVevY8eNONznu8NDB55h578U+VCFI10vOa7Xcb7apYLiuHE+Q8S5s0eFbETcPmlNfRrk8ecPDKowj/MlRz467zkYObreeb4zTpWP/HxRJur5zHPUfitNnjSoOKKUBScojwRx1AdBV0NkVmFxZP3+i2pHovREniq8L7LXyA4/Pmgojsxq8JYzQRDERCBLzBkj6D8xpH67YD3fzgbWU30yuqNiQbvdk51XXggcvKxs7r047bo+r/IWFGAAp7tl+GTHAOtRrzF66KkmVWkYwJtTH8N2sUmnS1sLwONc67jemQ/5mHd7Dq4e7rF8Efg9sXWuQxtSUKPTyNJ7z3xgxjRMFmFg+MRZXN263HA2nY+Fzc44OcFlES9R6oOmtBYD586G0ELoERntuO1cbIfJktqzGLi1XYzUqFdlRRAEMVHIfCFixjJsOnUTUP2iahwfw17zY33hMq5iCvLCNvAXBlmTNIKeubrxlQ2wVLVzhjB8Wv1MFylLg+lY6TNyhJsarPjZ5jKNCMHl4FmcvMBDSrDhgkKcDA+MANyZ07iHv3kiCWLVh6TJxZrdTDA4V4G3bqjCvhiySk8jEziOVQiBhUwaBEFMNLJDE8EbDt04thfifMWzeFs0dPwY7wl/hmEdTpQZ01mfmjWWp+zGN7ARThejkoZe7J3bBTTfb8fPHS8dzMecraqX330K57fekpD2Ja8wR/pHGOkXW9LDWV1Eqw8pYyaKyjvQ/l60eSCk82XVrTSMliCIiUn2jc4w1OeCGSUoWsF68Q+HHRIoG87g691qfumoaWsJGC5BhjsImk6esUlBGmIhtB1AToHh5OjSRHDm3cN7+fvwQtNnCWkhOHk3z8bkhkNJawbyCqYAlkYkBu76oOGOlTQZFEEQRFrJfCGCe+Ib6vHtrDedY9jUeQO7ePf9KEEX9hjnvdAWQw9twOdwWDrHef32qS9bQyPzKtcY8XNfA3a/Feogh/WMy7gQoMwRewZucc0HwRt9dYyr9w/quOx7JJ2GWLA03sXSdL5Cx/0uprbf5G2AlVB2FbMxL1ETkTI1jFj3kFsiZSEoXYulRn5un2poGmLWB4IgCGK0uIZ7V6rfBMEwh3XG8Coc53B/h+eKaYgnQRBEENlnziDSynDbPvTgJtw1wQUIzvXF5Th+pIOJCgEMdaC9oxxFM1WYIAhigkGaCEJgT3TlM8nVhEVqGmo74Jq0ii/AtRot7Ff4yawIgiCyHxIiCIIgCIIIBZkzCIIgCIIIBQkRBEEQBEGEgoQIgiAIgiBCQUIEQRAEQRChICGCIAiCIIhQkBBBEARBEEQoJsQQT3sOBMaKm7Au1QtCpQM+vXMFrDkb+Hoc7hUxJzePv1klHWVlEW3uCrmOCF/2PGWLlX3yCrqv/1PglUGUfusd+/d3nXl95dVK9N3zE/yOzzGBiudfVPCLJyL4gz9WAQzhV6unY2S/Cq76OxS33oOp/LfrOhM7DnU9+HWLcNn6reIgCIIYBSaEJoKvS8FXfHSuZ5Fq5PoYqV2W2gUXgPTqlWo57ITXpcgAuKCw/eleFXLiKCvrecdm8qsvFNqCgflbNuDXYACV+KLa44YLGD+/vg3/7uMI/ojJ6XyzBQjg10+wRn9upzo2iBz8KfqeOCEPzrwHpeoaa/v47/A7+BP8rnt2zLmFttBg/iYIghgFyJyRragFteyVPYmUMbMQX1A/Hb8VV1793/Dfvx9B6XfdS6lrTmDwHiDn4zZ81W9K7E9ewcUf/Qly1t+sduTjq99/EvjR0/jVJ2qXi1//5z/Fvzz+kBFfPibNVT8dvwmCIEaP7DBnCNX+gAow3CaJC0fwwtwuXFXBIDW/MAkcnu1rznCq0f3U53Jhqp6DKsgoECr0KMtyb12OLQ/p5bRd1/uYVbyqfDsdfmkX55824nHlg3kPaQ6Z4nouwxQAlsdN01Aypws9LA2Tm5ej6PAhkV75nOoSV1l4jrE41tVcxh59jpEGf1MFx5vf0crKUx8YjnRw+FLgq3eleVrqE/jFNWX4rduc8Y9P4ed/VRhoWhBmkNcqjeO2acNp8lAo88YX/I4RBEGMJVyIyGg+PRx5/rpnIkc/VWE34vijkVe7VDjSE3mVhZ8/MKjCNkMHnok0rj8cGVJhzYc7H3XsF+dd91LkQxWORAYjR9ezc3b2qLAf8r52Oky817vv6Q5Hul5ypMGTds9zs3vsNJ/NnQ/e9DniFPeT58vnl+eKdOl0i3OMsnCnQcVhp9O/LBxxBhBUVp40BOV7V0NkVmFxZP3+i2pHOuiMnGKvUNcrzue7/MqfRP7x8c7I+ccR+Ud2XGyr/i5y2XVc8PHfRbrY8VMnBiO/XOWNiyPON64nCILIFLLEnDGC/hP+tv/hE2dxlfX47V7ofCxMSM3fi9MNOSh50u7x5lXeggIM4LT2b+g+ynrkrLdsaRUS5EIP+l3Xz7vnJkw+eBYnL/CQNw2+HOzCnqmPYTvf5p5F0Smz952PxQ+Z18/HnK3A1YFBR/h8h/ZFGMLJwyOYfHuJcU0hyrQGZ8VNWMjiziu0/UhOdgxgcvMaLJ6hdsxYhjJHnBz2nJb2wJ2G5PGkIYjSWgycOzt2i2P9qAz/dbH2aXD5PCik38QAvsTO0RoGp+8Fh5tGfoIvfp8cJgmCyDwyX4hgDdUm5UQoGk+X8+LwwAjQcMg6xjf3KIaoXBhkIsoIeuba1293mSeGz3/GGtVp0Rv4aFy4jKtMKHnTSON20+wg0hAH3DSgHSuvPOhpSLkJwH4Gr+lACC4Np3CSB5RgYwkNMRnC8GkmEBjl4HeP9CLTkBU83mmYHrTPwzv4tdrDhYy+voeYgPFDfEXsGMB/1yM1DK68+jQ+X/V3mE5mDIIgMpDs0ERwQUI3nu2FOF/xLN4WPXjVU+a+B1bjqjY/W7ofM6azXmIOSliv3h2H7uXnFUwBDl4O78A4YxomC7u/+x5eQSA03S8z4QmO51i6VR3TzChB0QqpYeEaHDQvSWDUQz7y5kh/E+czsC2shmacMrWwBDg1gCsqbLGqUIzmmPqtSjHSwnasZHwygN/iSfyeQ1iQWojfuWsRaSEIgshIsm90hmiQbfJuns1614eSGFrJVe4j6Hn4SLCQUDpXmDfeDBiWKJmOqSvcqn2FarwDrxfHDZONj+NgLIS2BFOQp4USFodXS5CPxTVMCGt6Fq9VT0lACyGZV16Iq9X7LAEuLELw0xqRhMjHvNtNU1UUp1buWHnDbGw4cEntGEX+eBG+uP9PMfiPKswdJ//qYVsYmLkI/27VTzDy/VeUoMGOf5+PvliktBKKf3wHnzPB4kt+c1AQBEFkANdwxwj1OzOJxxPfPSqBYY/QCGponCMCoo2MkHjjiZmOaKMzOOYIDce17N6npqFz7mWURRmd4cQ7+mPp7Wfx5sAtLk2Beg5H2hgin+XkVnnGvcB/m3FEKw8jDke+wnUvT17Yee0/gsMsC+e1Be33Y2rTi7hS4yqLdI7O4KMvbn5YBQwe78QfPaK0C64Jo7wTUtkjMgTmtYKAkR8EQRAZROYLEUSKMYZ1mo0uQRAEQSQITTY1wTj5tNRCkABBEARBJAtpIiYEhgnANKEQBEEQRBKQEEEQBEEQRCjInEEQBEEQRChIiCAIgiAIIhQkRBAEQRAEEQoSIgiCIAiCCAUJEQRBEARBhIKECIIY76gpwAtvaESP2kUQRDguHaii98mAhAgxh4K9KqXc7AW+xg98pkr3c74cYv0KBp/eml0ffr2SUUClcXvU9U6SJBvygZV7/epdqGo9i4FztShRe9MDuxf7uNaPaX640mAJUMbWmMY6MUbYDZu9hVs35hL2bWDXb9jPfo1HzOfzf9aeRp5/UkAwf2tyV7awd+ks2qp3oXIc1qVEGXUh4vVDb7DtsAqNHnxNhmgNirk65bpmVnnmZqMgIQWFaI0aX+dCP+fSrXx58pCCRIZzsmMABc3G0ucJIpZV3xBlUbZsYagPfdiI2zJ4hlLxoU7rx3gj2thHn3/4B861oqp5dVYKEkJQiNa4l9fjff2cnfXA5rKxWYAuG7ixGNaKOuZvTXkRrlc/Hb8NSm7dCJzpCy6PCcKYaCK4ING488e4fNmzWHJGkFe5BiXmqprjlHkPLRerk/KlwROidK0QQjJ36uxenG4oxJxKe+nztJDx+cD4pB/H1U+CMx91rezj39w+vlXR+auwfUc5jh/pSLCRy8Wa3UwI2b3K27COC3Ix+0b10/Hb5vricvXL+ZvwZ8zMGb/81Rn86PGncPTYO2pPFLRqWm/uHiJfAdM4/kKb3fgLDQTbJ1aGbDhkxxG1Bz6IK+Zqmxx3GiythjKHuLUc4nx5D9GrffqIZTbZ261NC05th06r3Jzpk3H0yr/6HOueOj65yuj5Ch2HeY4PFwYxon5y9D0cz2pe78pnp8ZD5sPeNn0OS7+Ox1FebvORMw+ip0E+p1m+HHGNeY/uUzi/YhrykI+8OQHLs7vLU12v83dPNcuZg13YY51jpDNqPijc8TvKgT8Hj0+XG9/8NF9K3ZoW26uP6UGo/vW95L3ru3Ua5Obp2TrMBavRonZbDO3HBus424yetFQVz0ZlMwtw7YB1nvN59Xl+xwSx0uDi0kf96pfG+YyFN1Rhn65iIm4jLJDny7zg+ciOH1BpYM/Xo00LprbDlQ/OfFRxDMkycadBmyoWbO4AOuqwwOccPz7uY+db6HuYz+q83pHPbo0Hzwe2b586Z8OBXisebx0y4nFofKKnQT6nu3xlnjhNZCqfomllolBSy4SkWrmqsPlbI8wVSogyfxMB8GmvR5PXDv40cu/GTY7t2eeej3z++W/UGS4+PRx5/rpnIkc/VWE34vijkVe7VDjSE3mVhZ8/MKjCkg93Phpp3NmjQiaDkaPrnecPHXgm0njdS5EPVVjEaV7rvmfXS67znXHK+OT5Ih3ieZzniP3rD0eGRMibBh2H9Qye5+bIZ3fu03iP+d+Tp0/fNyg+v/3yeeS18riI21V+QwdecpRlomkQx43zg57LKk9P2TDEvih1iuG9jx8B+eOJX+WNVYdU/hjnuPNBcjGyd31xZFZhQ+QDtSdRLu6/LzKrwa/e90SeKiyOPGWmvavBuJe+t3GOOH5fZK9+VdxhT5wsjoZW9r9GHl+/397D+aCB3cc3jerYejsO8TxmfsRKg+OZON40XNzfYFzvvqfMB0eaHXHK+MT5g62R9fw3fxbzHLXfzhd3GlQcxnO4n5sjnt21T+M5FnBPXp76vkHx+e4XzyOvlWUg43aWHbuHWY4Jp0Eet88PSqOKxyfto4p4PrPuTUwywrGyp/dDPPLYkyrkR7BpYfjEWVx1rEo5Hwubc3D1cE9C9uyr1S9avcY9h2dj3ZW1mKeO8TjvfsiQVmdwNTlL1XmVptK5TrPAhR70H8xB0c35agdjxU1YqNO49RYsniF7yRKufs9ByZP2wlh5lbd4TQ188SydDnca4sTUUryJ5djiWYyrEEutZ5+OqQneY3LzEivfCmpY3DOmI0eFOXmVa9mzqwBjXnkh6/FfdpVVcBrybp6NyQfP4qTutXOtAzt/jlX+Mi+tvHeXDdeENA2wdK5xpCOVcH8MWcZqB/KxuIY9p8s/o6D9Qesc/3xQquUwDpGqR7gF9Z6eViIs3NGJOp23pRvRWN6B/k9ksOfYLna8HmuMau6Epb/W7MXNx23VwPE+FUFMevFWczka6+04clfWoAq78JYqz9hp4OxCpej18m010HoWu1faqcpdWeu4Xti6O/rxsQjlYtEyp1mA3xPVFY4yqarRaWTpXcfye2YRFoow62G/dxTHq1vtfGT5UOVjaqhqbbHS4UxDnJhairKjqOg8a9xTwstTP3vurKIE77ERD+h8K69HFYvbqe6fjzqzruWXo4Id7vvIqS8IToOsHy3HtPbiEt5hebSQ5b9dWhx2H+73MdYagvxV2H2uHqgLrxUZD2SEEFHyja/jiW0Pq5CLGcuw6dRN7KW1G3lTfTw8MOIyUyhVdIKYjpXehtVtalArYlpIwUWrzaVgYzYiMRBmhRH0zDXvIU0TqcZ0rNxiCkYaYQbQsMZv9zZsqoz6hU4MlylgewVrcN1ESwOrD2VbbaGSN9im4CKFiilMeFFhjyAkTVU5BSl8JgdDGD7N6lPhdBVWzJiGyfgMwx6TRZoorRUOdttRl3InQtkoXMLZMzIcDfeoAWG6iBfhFNqB2jL7eqe5Ir40OB0rvQ2rx+SymgkJBkJw6TiKd0QVUoINFxTiRJgVHOYaZZpINaZj5TlbIDEpnmU0u6KOpHbEjtP0VIZan8eMloaSdfXsW6r8VYY60N5hCC6Zhqg3dUB9Bgg0Y8iYChGTJk3CPWtW4XsPbMK1105Se33ggoRu+NoLWW/ath/nFbJ+7lbWo9bH9ZbC5a65nfzNBt471vHfjxLWMJmIHrLoaQ7h5GH2MtyTQO9P9NZzUHLKSL/aMtppL2F6sXduF/ugGgIbK89E4b12qWmSDpRlhpAjtADgo060oCIFPlszlbh2JTGkhunqwKAKKy5cxlWHcDM6iJ5eypwIP0E/axQcjUA0uhtZYwk0sh6xbsDbWE8zbvKLUcx79sb1evMIAqHpRX0ZawhY79iKnzteOuA9ZNagvceEp+52tFTXxNB8OBG99epWR/rFNs4aHi4wVjabAlsnGhP1SxTaC6lp4hoc7NiY5mHJScCdlsuXYFG6+iNZwpgJEV/76mw8se2HWLJ4kdoTJ6JHZyMb70NRhzVyhLARdrgf13YYvePhtn0uTQRD9JAH0LmBHZuTgBZCMB9zWO+65+FkhxTKBtLXkTATUI6cthaACRV+mohYlC5hH5YuvLbhXYyYWgghVLi0LXw7dZNhAsnHvNtzcLV6n48jo01ewRTANJskgDBNNLxrxC+f06ExiQvtgJYOx8qZKDJVzbxX5eqBu7l0oAkt1nBRt5qfO7s5nRqlA2MRZuviZkKFnyZCNLK+go5svGvrglTFsdMQE6HtMAUjFodPPvAeMjbXYUNTf0JaCE7uN5ew3vVql3Ng4kjVv9aIZB5C42IMh7x0oM5XExGdXKyp2YiWpips2VwUoIVIzrGSSC1jIkTcufx21P7g+5g2baraEwW3lzvryeYYtmRt7hgxbP18c3vwy2GbZg81/vkRxFBIw1N/z8AtWLpVHTQQPeSDIygoT+wjw5n30DYsnWOOBkgsjZJ8LH6Sz41gmHccowKSQ49ccI8Cced1IKys7uJmH6us3sXUdpZedTh+lCDABDmH34kQUkz/CIXwH7FNIHmVD6q5QHQ62OYe8VO6lpWxaWKytV8x84Fd64z/EBN27k+tWShp5Mf6+OYyqXou68cDnfWWHV9jHWfbgiNL8L6hes5dWY9GaDs89zVw9jzFcdartPwRmorQtsPbNfWcZwhN3Hu+7UZzRILzeKw0xEQNhWxZreNuQlGrNx9kD7kDxxGi58lt5yxv+6x7yC3hORxKa9HGhSrLvBN9dEZiqIaZbc5RIPELsCW1ragy/DIW9NUkpnnSlFaweFheu/xOiMzkGu5dqX4TycIFngoYToFEuuANuXCATaHZalzCNQxcQEjY9s21IGVoX2Y7wU1sKD9GD6lR4g6wqTNbpQHuvMwE4/fHmVkqUTLCsXJ8IFXWBe0kQKSdC0fwGuvhmKNZiACEX4E9moEIh1DNox7bSYBIOz2Nq9HiGM2SmYhROn6zXU4wSIhIFmu0gVRZjy9HyAxDm7bcJi0iCnKGRqmuT4dvxfhGjzZYsLkIbRO8x5le7AmoKs/U4/0khiWnGz3iSDiRZnA6RwsyZxAEQRAEEQrSRBAEQRAEEQoSIgiCIAiCCAUJEQRBEARBhIKECIIgCIIgQkFCBEEQBEEQoSAhgiDSiVpNk4ZXEpmOvVga1VUifiakECGmLXZPc5xWerFXzCVhbolOaZ1F6PkcUjjltgd1j1hrpowtch2Gqla+GFFqV0v0IqctTnZ9huRwpcESoIwtxSuKZgR+z8m24LKQcyIkPO11VNQ8C2I9CfO3jZzzQgoI5m9N7soWsXBWW/UuVI7HciLSwqgLEa8feoNth1UoixCTStnrJ4TBXBhq6Va+jkcWChJx5ANfSbOgma/hEXLBs1EX8tKEWNxJL1iVmYjGJK0NhrmqYyuq+JLYWdhAiV560IJPatn1AbH2iL3q6JjMuGjOoOg3m6KxQJbjt0HJrRuBM33+z0oQLsZEE8EFicadP8bly1fUnomHWNQLAzg97qYjlstzz6nki16l8flK1wphLKNnCOVLBaufBEfOnpm6pckJm1zMvlH9dPy2EaulKszfBJEMY2bO+OWvzuBHjz+Fo8feUXv88fZKh/D2BmPFRK7W5se1Ct3XVCCv0cf3VPMFqZ2cfNo+zjdLTa6ntZ7bhaswV3V0rV5pTX/tc8wPtSy2SWAalDnEHaedN/L59rbpNLDn1/nhk3fWPXyO7e12npNwPnSfwnmxbHo+8uYELEvuKCu2qXSI52FhUT7GqqnmCprufPY1Z7jjd5hVeF7y+EwTk59mRU/Dmw77sI/pQajE9b3kveu7dRrk5lF/O9ToPktg88W3rONsM3rSejpnsTQ31w5Y5zmfV5/nd0wQKw0u5PLgJs5ndKxMKeJ2r1Qpz5d5wfORHT+g0sCer0fb9U1thysfnPmo4hiSZeJOg/YTcK5s6TwnLhxpKAtYIlulIUjjEQO+4umAmobZ/K0R5go1dbf5myCSgk97PZq8dvCnkXs3bnJszz73fOTzz3+jznAydOCZSOP6w5EhFY5EBiNH1z8aef7AoAx2vRRpvO5R4xx5vHFnjwh5wz5xsjhe7VK/GeL4dS9FPlRhwaeHI89f90zk6KcqbCKOPWrE0RN5lYWtNKqweY8Pd5ppZsRIgzcfzDjVM4rz5X5xriPN3nxwpkHHYacz4Xxg8DidZeO6XuwLvp7jfVY/vHkq8MTvfm6VP8Y5nrIQXIzsXV8cmVXYEPlA7UmUi/vvi8xqsPPbpifyVGFx5Ckz7V0Nxr30vY1zxPH7Int1lXKHPXGyOBpa2f8aeXz9fnsP54MGdh/fNKpj6+04xPOY+RErDY5n4njTcHF/g3G9+54yHxxpdsQp4xPnD7ZG1vPf/FnMc9R+O1/caVBxGM/hfm6OeHbXPg/iXmZ+KDxp8HkugfE8as+YEPQcBOFDRjhW9vR+iEcee1KFwlCIpdaS0PlYXFMInB6UvewLPeg/yI4/FGWhlNK1DrV43s2zMRmfYThO/4fhE2dxdetyI475WNicg6uHe4yePuuVV+ie72N4E8uxxVzGOkYaRPjgWZzUaeI9fvbcc4xrJjcvsVYQLahhcc+YjhwV9suHeffc5IyTMdlYRCzRfOA9qdMNOSi6OV8GS+e6TDZDeLtpgN1jTdoWz+L+GNh6ixG/qg8u/4wCYwGveeXs+MHLjrLiKuE1u7ltO4RDpOqdb0G9pzeYCAt3dNp29dKNaCzvQP8nMshXEFy4ox5rVFZ7YemvNXua83FbNXC8T0UQk1681VyOxno7jtyVNagyVgSNnQbOLlRaPXC5vLO5lHbuylrH9cIe39GPj0UoF4uWleP4kQ5bg8JXTqyucJRJVY1OI0vvOpbfM4uwUISBS+8dxXHHipDzUbXDGSenqrXFSoczDcnjTUMQ81HHfSvGWkOQvwq7z9UDdeG1IsTEISOEiJJvfB1PbHtYhVKEbhQuXMZVsSMartETQmUfP8MDI6yROmRfzzY/k4npWLnFI9TESMOMZSjbOoL+E1KHyhtLU2iIicgH7swZ5R7JIgSbKUx4UWFMx9QVwMh5rfcdxJWDQE5B1FYnCYYwfJoJQoXTVVgxY1qCwlCSKEe77ahLuRNh30f8k34JZ8/IcDTsIXtyE6aLeBFOoR2oLbOvd5or4kuD07HSx9nQbXJZzYQEAyG4dBzFO6IKKcGGCwpx8nFfh8tco0wTo4hIQzYhyqQOqM8AgYbIeMZUiJg0aRLuWbMK33tgE669dpLamzzD5z8DhF0+HrgPwCGc37rcbuBPsR66OhoPeYWsv29erzdT0xCV+NLAe8xSuyGdF8sqE2iMRUNaiKVm+sSWuiW1hRbAIai8iB4mNNgaGbdQkWqkH8bVgUEVVggByhRuRofcWUUpdCL8BP2sLSqeFecnvbuRNZawRgrwra1aHYuH/GIUGyMNzC11ow56UV/GGqsdnXb83PHSAdegdKD9PSY8dbejpbomhubDiXAgrG51pF9s1DgGwx2Cy5dgUbpkfWJcMWZCxNe+OhtPbPshlixepPb4k1cwxaFqPvm0bJiC6cXx6hFMvr1ENuAulTp33nNqCWTv2O69sgb9YZ8eujAN2JoAE6H2bzjk7+QXF3GmoXQJStCF1za8i5FEtBCcGXK0xJvJzt0QmA9csHFpW/jGhSHLZJKPebfn4Gr1vqhDRGWZO80s8SJMEw3vGvH3Ym9FglobQTodK2eiiLVtUqvA4D0/Vw/czaUDTWixhou61fzcIc/p1CgdGIswWzcETKjw00SIRtZX0JGNd21dkDo7dhpiIrQdpmDE4vDJh5J19cDmOmxo6k9IC8HJ/eYSLGxenfT8GUIgtDQiiSHMI1Ye83qVHsdKghgLxkSIuHP57aj9wfcxbdpUtScKvOHkjZ/q3XYW3o+lW9UxC7P3ewhgDdkmq5c+H3e3F1r+CHsOz8Y6FraRx69Wv6iufxFXavjwSzfu84xRCTOWYRNrLEcMnwfH8ZjEmwbVCDOBw/I7iJt8LN59P0pOO80uzhEa8RCQD2K0idNHQyCEF1voyKt8EOtYY2aO7vCkoXQtK2NzBIg9ekKP4ODlfJ6Fdblaec2udcZ/iAlc9xv1IRPIxZqajTi+uUyq2Mv68YCYY8CJdZyr4I8swfuGf0buyno0Qo8W4L4GnWg0Ru2J4+WGP0JTEdp2eIf1ec4zhCbu4d92ozkiwXk8Vhpikr8K21maWlbruJtQ1OrNB+SXo6K8A8cRonfM7fssb/use8gt4YmeSmvRxoUqy7xjjM7QI1TK6lga7XMswUVcq/O4DO3LOhPTChFEBnMN965Uv7MTPpyvAlh6ZW2CPc3sRGhSuCAUt6mEGDO4hoELCAk7Z8reKm9sTCfEiQvlx6jChSImdL5PJh8iDjLCsZKIkwtH8BrrwZQ8SQJEViD8CuzRDEQ4Lh2oQy3qsZ0EiFFBjIDxm+2SIHwgISIb0JMnze1CjjE0kch05AyNUl2fDt+K8Y2e6GrB5iK0Ua847ejRPJXNG9GWxNBkYmKR/eYMgiAIgiDGBNJEEARBEAQRChIiCIIgCIIIBQkRBEEQBEGEgoQIgiAIgiBCAPz/AZlYM+mKQt4jAAAAAElFTkSuQmCC;" vertex="1" parent="WIyWlLk6GJQsqaUBKTNV-1">
          <mxGeometry x="75.5" y="1040" width="529" height="384" as="geometry" />
        </mxCell>
      </root>
    </mxGraphModel>
  </diagram>
</mxfile>
